<svg width="34" height="38" viewBox="0 0 34 38" fill="none" xmlns="http://www.w3.org/2000/svg">
<path d="M18.2935 20.7672H16.3508V25.8553H18.2935V20.7672Z" fill="white"/>
<path d="M18.2935 14.4623H16.3508V20.062H18.2935V14.4623Z" fill="white"/>
<path d="M18.1144 9.99645L17.9766 9.73375C17.8802 9.58166 17.7975 9.42957 17.7148 9.27748C17.6184 9.08391 17.4944 8.90417 17.3704 8.72443C17.2464 8.90417 17.1362 9.08391 17.0259 9.27748C16.9433 9.42957 16.8468 9.58166 16.7642 9.71992L16.5162 10.1762L16.3508 10.4804V13.8402H18.2935V10.3283L18.2108 10.19L18.1144 9.99645Z" fill="white"/>
<path d="M21.9583 28.1505V30.3765C21.9583 32.6026 20.3877 34.4691 18.3072 34.9116V31.2199H16.3646V34.9116C14.2704 34.4691 12.7135 32.6026 12.7135 30.3765V28.1505L10.95 31.3444L10.9637 31.4135C11.4322 34.2756 13.6779 36.4325 16.4748 36.8058L17.3703 37.4141L18.2797 36.7919C21.049 36.4048 23.281 34.2617 23.7356 31.4135L23.7494 31.3444L21.9583 28.1505Z" fill="white"/>
<path d="M17.6184 5.39227L17.3842 5.12957L17.3015 5.04662L17.2189 4.96366C17.0949 4.8254 16.9709 4.70096 16.8469 4.56269C16.5851 4.29999 16.3233 4.05112 16.0615 3.80225C15.786 3.5672 15.5242 3.33215 15.2624 3.11093C14.9869 2.90353 14.7251 2.69614 14.4633 2.50257C14.2016 2.309 13.9398 2.14308 13.678 1.97717C13.4162 1.81125 13.182 1.64534 12.9202 1.5209C12.6722 1.38263 12.438 1.2582 12.2176 1.13376C11.9971 1.00932 11.7629 0.912539 11.57 0.815755C11.1567 0.622186 10.7985 0.456269 10.4816 0.345659C9.86159 0.124437 9.51715 0 9.51715 0C9.51715 0 9.7927 0.262701 10.2887 0.677491C10.5367 0.884886 10.826 1.14759 11.1705 1.43794C11.5149 1.71447 11.8731 2.06013 12.2727 2.43344C12.4793 2.61318 12.6722 2.80675 12.8789 3.01414C13.0856 3.22154 13.3198 3.41511 13.5264 3.63633C13.7469 3.85755 13.9536 4.07877 14.1878 4.29999C14.3807 4.52121 14.5873 4.72861 14.794 4.94983C15.4278 5.04662 16.0202 5.17105 16.5851 5.32314L16.8331 5.39227L16.9157 5.4061L16.9571 5.41993L17.0811 5.44758L17.2326 5.48906L17.3291 5.51671L17.4393 5.48906L17.646 5.43375L17.6184 5.39227Z" fill="white"/>
<path d="M17.7974 5.23993L17.8112 5.25376L17.9077 5.3782L18.1005 5.32289C18.7068 5.15697 19.3405 5.03254 20.0156 4.93575C20.2085 4.72836 20.4014 4.52096 20.5943 4.31357C20.8147 4.09235 21.0352 3.87112 21.2556 3.6499C21.4623 3.42868 21.6965 3.23511 21.9032 3.02772C22.1098 2.82032 22.3165 2.62675 22.5232 2.46084C22.9227 2.10135 23.2947 1.75569 23.6392 1.47917C23.9836 1.18881 24.2729 0.926112 24.5209 0.732543C25.0169 0.317753 25.2925 0.0688782 25.2925 0.0688782C25.2925 0.0688782 24.9343 0.179489 24.3143 0.400711C23.9974 0.511322 23.6392 0.663412 23.2258 0.856981C23.0192 0.953765 22.7987 1.05055 22.5645 1.17499C22.3441 1.29942 22.1098 1.42386 21.8481 1.56212C21.6001 1.68656 21.3521 1.85248 21.0903 2.01839C20.8285 2.18431 20.5667 2.35023 20.305 2.54379C20.0432 2.73736 19.7814 2.93093 19.5059 3.15215C19.2441 3.37338 18.9685 3.5946 18.7067 3.82965C18.445 4.06469 18.1832 4.32739 17.9214 4.57627C17.7974 4.7007 17.6734 4.83897 17.5494 4.97723L17.701 5.15697L17.7974 5.23993Z" fill="white"/>
<path d="M21.6001 15.1536C21.5726 14.5868 21.5037 13.9646 21.3935 13.3147C21.2832 12.6649 21.1179 11.9874 20.9112 11.2961C20.7459 10.7569 20.5393 10.2176 20.305 9.6784L19.2579 9.16682C19.1201 9.11152 18.9824 9.04239 18.8446 8.98708C18.6104 8.8903 18.3761 8.77968 18.1419 8.69673L17.7975 8.55846L17.5357 8.44785L17.4393 8.40637L17.4944 8.50316C17.6322 8.72438 17.7699 8.93177 17.8939 9.153C17.9766 9.30509 18.073 9.45718 18.1557 9.59544C18.2384 9.74753 18.321 9.89962 18.4037 10.0517C18.569 10.3559 18.7068 10.6601 18.8722 10.9642C19.0099 11.2684 19.1615 11.5726 19.2855 11.8768C19.5473 12.4851 19.7677 13.0797 19.9744 13.6466C20.1673 14.2273 20.3464 14.7803 20.4704 15.2919C20.7597 16.3289 20.925 17.2276 21.0352 17.8498C21.0766 18.1678 21.1179 18.4166 21.1455 18.5964C21.173 18.7761 21.173 18.8591 21.173 18.8591C21.173 18.8591 21.2006 18.7761 21.2557 18.5964C21.297 18.4305 21.3659 18.1816 21.421 17.8498C21.4761 17.5179 21.545 17.1308 21.5726 16.6607C21.6139 16.2459 21.6277 15.7205 21.6001 15.1536Z" fill="white"/>
<path d="M17.3015 8.40637L17.1913 8.44785L16.8882 8.57229L16.5437 8.71055C16.3095 8.80734 16.0753 8.90412 15.8411 9.00091C15.7033 9.05621 15.5655 9.12534 15.4415 9.18065L14.422 9.66457C14.1877 10.2038 13.9811 10.743 13.802 11.2684C13.5815 11.9597 13.4162 12.6372 13.2922 13.2732C13.182 13.9231 13.0993 14.5314 13.0718 15.1122C13.0442 15.679 13.0442 16.2044 13.0718 16.6607C13.0993 17.117 13.1544 17.5179 13.2095 17.8498C13.2509 18.1816 13.3197 18.4305 13.3611 18.5964C13.4024 18.7623 13.4437 18.8591 13.4437 18.8591C13.4437 18.8591 13.4575 18.7623 13.4713 18.5964C13.4988 18.4305 13.5402 18.1678 13.5815 17.8498C13.6917 17.2138 13.8708 16.3289 14.1602 15.2919C14.298 14.7803 14.4771 14.2273 14.6837 13.6466C14.8904 13.0659 15.1246 12.4713 15.3864 11.8768C15.5242 11.5726 15.6619 11.2684 15.8135 10.9642C15.965 10.6601 16.1166 10.3559 16.2819 10.0517C16.3646 9.89962 16.4473 9.74753 16.5299 9.59544C16.6264 9.44335 16.7091 9.30509 16.7917 9.153C16.9157 8.93177 17.0535 8.72438 17.1913 8.50316L17.3015 8.40637Z" fill="white"/>
<path d="M16.8055 5.62732L16.6815 5.59966L16.5437 5.55819C16.0477 5.41992 15.5517 5.32314 15.0419 5.24018L14.8628 5.21253L14.6837 5.18487C14.4495 5.15722 14.229 5.11574 13.9948 5.08809C13.2784 5.00513 12.5619 4.97748 11.8868 4.97748H11.5837C10.826 5.00513 10.0957 5.06044 9.44819 5.15722C8.78686 5.25401 8.19442 5.37844 7.68465 5.51671C7.1611 5.65497 6.72021 5.80706 6.36199 5.94532C6.00377 6.06976 5.72822 6.22185 5.54911 6.30481C5.37 6.40159 5.27356 6.4569 5.27356 6.4569C5.27356 6.4569 5.38378 6.44307 5.59044 6.42924C5.79711 6.41542 6.08644 6.40159 6.45844 6.38777C6.69266 6.38777 6.95443 6.37394 7.24376 6.37394C7.87754 6.37394 8.64909 6.38777 9.5033 6.4569C10.1233 6.49838 10.7984 6.58134 11.5011 6.66429C12.1899 6.76108 12.9064 6.88551 13.6366 7.05143C13.8433 6.94082 14.0637 6.83021 14.2841 6.70577C14.4219 6.63664 14.5597 6.58133 14.6975 6.5122C14.9593 6.38777 15.2348 6.26333 15.5104 6.15272L15.6206 6.11124L15.7308 6.06976L15.8548 6.02828C16.0615 5.94532 16.2681 5.87619 16.4886 5.79323L16.6952 5.7241L16.7779 5.69645L16.9019 5.65497L16.8055 5.62732Z" fill="white"/>
<path d="M28.8196 14.6006C28.6268 14.2688 28.365 13.8955 28.0481 13.453C27.8965 13.2318 27.7312 12.9967 27.5383 12.7755C27.3454 12.5405 27.1388 12.3054 26.9321 12.0566C26.7254 11.7939 26.4912 11.5588 26.2432 11.2961C25.9952 11.0472 25.7472 10.7707 25.4579 10.5218C25.1823 10.2591 24.893 9.99643 24.5899 9.73373C24.2868 9.48485 23.9561 9.23598 23.6255 8.97328C23.2948 8.7244 22.9366 8.48936 22.5921 8.24048C22.2339 8.00543 21.8619 7.78421 21.4762 7.56299C21.3246 7.48003 21.173 7.39708 21.0215 7.31412C20.6633 7.39708 20.2913 7.49386 19.9606 7.57682C19.8228 7.6183 19.6851 7.65978 19.5473 7.68743L19.5335 7.70126L19.4371 7.72891L19.3268 7.75656C19.1615 7.79804 18.9962 7.85335 18.8308 7.90865L18.266 8.08839C18.0593 8.15752 17.8802 8.22666 17.7148 8.28196C17.894 8.35109 18.0731 8.43405 18.2522 8.50318C18.6242 8.65527 18.9962 8.82119 19.3682 8.98711C19.6437 9.11154 19.9055 9.24981 20.181 9.37424L20.3464 9.4572L20.4704 9.51251L20.5117 9.54016C20.8562 9.7199 21.1868 9.89964 21.5175 10.0794C21.8619 10.273 22.1926 10.4665 22.537 10.6601C22.8677 10.8675 23.1846 11.0749 23.5015 11.2546C23.8183 11.462 24.1215 11.6694 24.4108 11.863C24.7139 12.0566 24.9895 12.2639 25.265 12.4575C25.5406 12.6511 25.8161 12.8308 26.0641 13.0382C26.5739 13.4115 27.0423 13.7572 27.4419 14.089C27.8552 14.407 28.2134 14.6836 28.5028 14.9324C29.0814 15.4025 29.4396 15.6652 29.4396 15.6652C29.4396 15.6652 29.2054 15.2504 28.8196 14.6006Z" fill="white"/>
<path d="M29.1365 6.30481C28.9574 6.22185 28.6818 6.08359 28.3236 5.94532C27.9654 5.80706 27.5245 5.65497 27.001 5.51671C26.4912 5.37844 25.885 5.25401 25.2374 5.15722C24.5761 5.06044 23.8596 5.00513 23.1019 4.97748H22.7988C22.1237 4.97748 21.421 5.00513 20.6908 5.08809C20.4979 5.11574 20.305 5.12957 20.1121 5.15722L19.933 5.18487L19.7539 5.21253C19.2166 5.29548 18.6792 5.40609 18.1419 5.54436L18.0592 5.57201L17.9352 5.59966L17.8112 5.62732L17.7424 5.64114L17.5357 5.69645L17.5081 5.71027L17.3428 5.76558C17.1913 5.82089 17.0259 5.86236 16.8744 5.91767L16.6539 5.9868L16.4473 6.05593L16.2406 6.13889L15.9099 6.26333L15.7997 6.30481L15.6895 6.34629L15.6206 6.37394C15.2073 6.53986 14.8077 6.73342 14.3944 6.92699C14.2566 6.99612 14.1326 7.06526 13.9948 7.13439L13.8433 7.21735L13.6917 7.3003C13.5402 7.38326 13.3886 7.46622 13.2371 7.54918C12.8513 7.7704 12.4793 7.99162 12.1211 8.22667C11.7629 8.47555 11.4184 8.71059 11.0878 8.95947C10.7571 9.22217 10.4402 9.47104 10.1233 9.71991C9.82021 9.98262 9.53087 10.2453 9.25532 10.508C8.97977 10.7569 8.718 11.0334 8.47 11.2961C8.222 11.5588 7.98778 11.7939 7.78112 12.0566C7.57445 12.3054 7.36778 12.5543 7.1749 12.7894C6.98201 13.0244 6.83045 13.2595 6.66512 13.4669C6.34823 13.8955 6.08646 14.2826 5.89357 14.6144C5.49402 15.2643 5.28735 15.6514 5.28735 15.6514C5.28735 15.6514 5.64557 15.3887 6.22423 14.9186C6.51356 14.6697 6.87178 14.407 7.28511 14.0752C7.68467 13.7434 8.15311 13.4116 8.66288 13.0244C8.91088 12.8308 9.18643 12.6373 9.46198 12.4437C9.73754 12.2501 10.0131 12.0289 10.3162 11.8492C10.6193 11.6556 10.9224 11.4482 11.2255 11.2408C11.5424 11.0472 11.8731 10.8399 12.19 10.6463C12.5206 10.4527 12.8651 10.2591 13.2095 10.0656C13.554 9.88583 13.9122 9.69226 14.2566 9.51252L14.4219 9.42956L14.5873 9.3466C14.8353 9.22217 15.0971 9.09773 15.3451 8.97329C15.7171 8.8212 16.089 8.64146 16.461 8.48937C16.6402 8.42024 16.8193 8.35111 17.0121 8.26815L17.0673 8.25432L17.1775 8.21284L17.2877 8.17136L17.3566 8.14371L17.5357 8.08841L17.6046 8.06075L17.7148 8.01927L17.9077 7.95014L18.1833 7.85336C18.3761 7.79805 18.569 7.72892 18.7619 7.67362C18.8997 7.63214 19.0512 7.59066 19.2028 7.54918L19.313 7.52153L19.437 7.49387C19.5886 7.45239 19.7539 7.41092 19.9055 7.35561C20.181 7.28648 20.4566 7.21735 20.7321 7.16204L20.8974 7.12056L21.0352 7.09291L21.0628 7.07908C21.793 6.91317 22.5232 6.78873 23.2121 6.69195C23.9148 6.59516 24.5761 6.52603 25.1961 6.48455C26.0503 6.41542 26.8218 6.40159 27.4556 6.40159C27.7449 6.40159 28.0067 6.40159 28.2409 6.41542C28.6129 6.42924 28.916 6.44307 29.1089 6.4569C29.3156 6.47072 29.4258 6.48455 29.4258 6.48455C29.4258 6.48455 29.3294 6.38777 29.1365 6.30481Z" fill="white"/>
<path d="M18.9961 23.2835V26.6157H15.6619V23.2835L0.685608 14.0752C0.685608 14.3102 0.795823 14.5315 0.98871 14.6697L13.733 24.0993V30.1414C13.733 31.4687 14.4495 32.7131 15.6206 33.3076L15.6481 33.3215L15.6757 33.3353V30.4871H19.0099V33.3353L19.0375 33.3215L19.065 33.3076C20.2499 32.7131 20.9525 31.4687 20.9525 30.1414V24.0993L33.6969 14.6697C33.8898 14.5315 34 14.3102 34 14.0752L18.9961 23.2835ZM15.6619 27.708H18.9961V29.3948H15.6619V27.708Z" fill="white"/>
</svg>
