<svg width="30" height="25" viewBox="0 0 30 25" fill="none" xmlns="http://www.w3.org/2000/svg">
<path d="M14.4751 17.1701C14.4232 17.1701 14.3702 17.161 14.3184 17.1417C12.172 16.3357 10.1801 15.2151 8.39077 13.8084C6.67429 15.1793 4.66949 16.2993 2.42706 17.1417C2.20165 17.2264 1.94886 17.1166 1.86266 16.8965L0.941806 14.5593C0.900452 14.4535 0.903364 14.3363 0.950543 14.2328C0.997721 14.1293 1.08451 14.0485 1.19284 14.0081C2.95883 13.3449 4.53145 12.4979 5.874 11.4883C4.93101 10.465 4.2909 9.55431 3.90823 8.94682C3.84765 8.85069 3.82843 8.73466 3.85523 8.62431C3.88202 8.51453 3.9525 8.41897 4.05151 8.35981L6.2357 7.04757C6.44131 6.92413 6.7104 6.9867 6.83679 7.18749C7.07443 7.56405 7.56661 8.28359 8.34767 9.14647C8.71986 8.69996 9.06467 8.23069 9.3757 7.74663C9.88709 6.95087 10.2401 6.21141 10.4765 5.62611H1.15382C0.912684 5.62611 0.71698 5.43499 0.71698 5.1995V2.69503C0.71698 2.45954 0.912684 2.26842 1.15382 2.26842H6.74768V1.2002C6.74768 0.96471 6.94338 0.77359 7.18452 0.77359H9.74905C9.99018 0.77359 10.1859 0.96471 10.1859 1.2002V2.26842H15.7797C16.0209 2.26842 16.2166 2.45954 16.2166 2.69503V5.1995C16.2166 5.43499 16.0209 5.62611 15.7797 5.62611H14.1093C13.8268 6.57261 13.3072 7.91557 12.3689 9.40528C11.9274 10.1061 11.4213 10.7881 10.8615 11.4376C12.2833 12.5081 13.8594 13.3722 15.5538 14.0087C15.7792 14.0934 15.891 14.3403 15.8048 14.5598C15.718 14.78 15.4658 14.8897 15.2404 14.805C13.3189 14.0832 11.5413 13.0815 9.95815 11.8273C9.86554 11.7539 9.80788 11.647 9.79798 11.5309C9.78807 11.4149 9.8271 11.3 9.90631 11.213C10.554 10.4997 11.1324 9.74088 11.6257 8.9582C12.6188 7.38203 13.1145 5.9856 13.3556 5.09086C13.4063 4.90372 13.5798 4.77289 13.7779 4.77289H15.3435V3.12164H9.74963C9.5085 3.12164 9.31279 2.93052 9.31279 2.69503V1.62681H7.62194V2.69503C7.62194 2.93052 7.42623 3.12164 7.1851 3.12164H1.59066V4.77289H11.1009C11.2413 4.77289 11.3735 4.83888 11.4556 4.95036C11.5378 5.06185 11.5599 5.20462 11.5156 5.33488C11.285 6.00721 10.8557 7.05041 10.1166 8.20054C9.69488 8.85695 9.21494 9.48719 8.69015 10.0748C8.60919 10.1658 8.49212 10.2187 8.36864 10.221C8.24283 10.2244 8.12634 10.1737 8.04188 10.0856C7.23752 9.24545 6.67371 8.49746 6.33006 7.99407L4.88908 8.86036C5.31077 9.48605 5.94681 10.3268 6.8333 11.2448C6.91659 11.3307 6.95911 11.4467 6.95154 11.5651C6.94396 11.6834 6.8863 11.7926 6.79253 11.8677C5.40163 12.9791 3.76262 13.9131 1.9145 14.648L2.52141 16.1889C4.6293 15.3528 6.50713 14.2578 8.10712 12.9302C8.26904 12.796 8.5061 12.7948 8.66977 12.9274C10.4567 14.3801 12.4633 15.5302 14.6335 16.3453C14.8589 16.4301 14.9707 16.677 14.8845 16.8965C14.8175 17.066 14.6521 17.1701 14.4768 17.1701H14.4751Z" fill="white"/>
<path d="M29.4027 24.3491H25.8282C25.6494 24.3491 25.4886 24.2427 25.4222 24.08L23.9632 20.4976H18.5312L17.0722 24.08C17.0064 24.2427 16.8451 24.3491 16.6662 24.3491H13.2059C13.0603 24.3491 12.924 24.278 12.8424 24.1597C12.7615 24.0413 12.7463 23.8912 12.8023 23.7592L19.4556 8.07427C19.5232 7.915 19.6828 7.81091 19.8592 7.81091H22.6352C22.8111 7.81091 22.9695 7.91386 23.0377 8.07199L29.8052 23.7569C29.8623 23.8889 29.8477 24.0396 29.7667 24.1585C29.6858 24.2774 29.5489 24.3491 29.4027 24.3491ZM26.1241 23.4958H28.7445L22.3451 8.66412H20.151L13.8594 23.4958H16.3698L17.8288 19.9135C17.8946 19.7508 18.056 19.6444 18.2348 19.6444H24.2597C24.4385 19.6444 24.5992 19.7508 24.6656 19.9135L26.1241 23.4958ZM23.0674 17.5717H19.4265C19.2814 17.5717 19.1463 17.5017 19.0648 17.3846C18.9832 17.2674 18.9669 17.1189 19.0205 16.9875L20.8412 12.5178C20.9071 12.3557 21.0684 12.2488 21.2472 12.2488C21.426 12.2488 21.5868 12.3551 21.6532 12.5178L23.4733 16.9875C23.5269 17.1189 23.51 17.2674 23.4291 17.3846C23.3475 17.5017 23.2124 17.5717 23.0674 17.5717ZM20.0707 16.7185H22.4238L21.2472 13.8295L20.0707 16.7185Z" fill="white"/>
</svg>
