<svg width="160" height="38" viewBox="0 0 160 38" fill="none" xmlns="http://www.w3.org/2000/svg">
<path d="M3.04486 22.3572V21.9286C3.04486 21.8595 3.07242 21.8318 3.14131 21.8318H4.36752C4.43641 21.8318 4.46396 21.8595 4.46396 21.9286V25.0119C4.46396 25.2193 4.5053 25.3575 4.57418 25.4267C4.65685 25.5096 4.76707 25.5373 4.94618 25.5373H5.24929C5.51107 25.5373 5.64884 25.7447 5.64884 26.1456C5.64884 26.3807 5.62129 26.5328 5.5524 26.6295C5.48351 26.7125 5.38707 26.754 5.24929 26.754H4.20219C3.87152 26.754 3.62353 26.6987 3.43064 26.6019C3.25153 26.4913 3.12753 26.2977 3.05864 26.0212C2.90709 26.1456 2.74176 26.2286 2.54887 26.2977C2.35598 26.353 2.14932 26.3945 1.94265 26.3945C1.68087 26.3945 1.43288 26.353 1.19866 26.2839C0.964436 26.2148 0.757772 26.0903 0.578662 25.9382C0.399552 25.7861 0.261776 25.5787 0.151554 25.3299C0.041333 25.081 0 24.7768 0 24.4312C0 24.0302 0.0551108 23.6984 0.17911 23.4357C0.289331 23.173 0.454663 22.9656 0.633773 22.7996C0.82666 22.6476 1.0471 22.5369 1.28132 22.4678C1.52932 22.3987 1.77732 22.371 2.02532 22.371H3.04486V22.3572ZM1.00577 21.1128C0.936881 21.1128 0.909326 21.0852 0.909326 21.016V20.0344C0.909326 19.9652 0.936881 19.9376 1.00577 19.9376H2.01154C2.08043 19.9376 2.10798 19.9652 2.10798 20.0344V21.016C2.10798 21.0852 2.08043 21.1128 2.01154 21.1128H1.00577ZM2.2182 25.164C2.4662 25.164 2.67287 25.0948 2.82442 24.9427C2.97598 24.8045 3.04486 24.5694 3.04486 24.2652V23.5739H2.24576C1.99776 23.5739 1.7911 23.6292 1.63954 23.7537C1.48799 23.8781 1.40532 24.0993 1.40532 24.4173C1.40532 24.6939 1.48799 24.8874 1.63954 24.998C1.7911 25.1086 1.98398 25.164 2.2182 25.164ZM2.54887 21.1128C2.47998 21.1128 2.45242 21.0852 2.45242 21.016V20.0344C2.45242 19.9652 2.47998 19.9376 2.54887 19.9376H3.55464C3.62353 19.9376 3.65108 19.9652 3.65108 20.0344V21.016C3.65108 21.0852 3.62353 21.1128 3.55464 21.1128H2.54887Z" fill="white"/>
<path d="M6.46167 22.6337C6.46167 22.5646 6.48922 22.5369 6.55811 22.5369H7.77054C7.83943 22.5369 7.86699 22.5646 7.86699 22.6337V24.998C7.88076 25.1639 7.94965 25.3022 8.08743 25.399C8.21143 25.4958 8.40432 25.5511 8.63854 25.5511H8.87276C9.01053 25.5511 9.10698 25.5925 9.17586 25.6893C9.24475 25.7861 9.27231 25.9382 9.27231 26.1456C9.27231 26.5604 9.13453 26.754 8.87276 26.754C8.62476 26.754 8.40432 26.7263 8.21143 26.6572C8.01854 26.6019 7.86699 26.4636 7.74299 26.2424C7.63277 26.4498 7.48121 26.588 7.26077 26.6572C7.0541 26.7125 6.76477 26.754 6.39278 26.754H5.35945C5.22168 26.754 5.12523 26.7125 5.05634 26.6295C4.98745 26.5466 4.9599 26.3945 4.9599 26.1594C4.9599 25.9382 4.98745 25.7723 5.05634 25.6755C5.12523 25.5787 5.22168 25.5372 5.35945 25.5372H5.97945C6.18611 25.5372 6.32389 25.4819 6.379 25.3575C6.43411 25.2331 6.46167 25.0257 6.46167 24.7215V22.6337ZM5.84167 28.8279C5.77278 28.8279 5.74523 28.8003 5.74523 28.7311V27.7495C5.74523 27.6803 5.77278 27.6527 5.84167 27.6527H6.84744C6.91633 27.6527 6.94388 27.6803 6.94388 27.7495V28.7311C6.94388 28.8003 6.91633 28.8279 6.84744 28.8279H5.84167ZM7.37099 28.8279C7.3021 28.8279 7.27455 28.8003 7.27455 28.7311V27.7495C7.27455 27.6803 7.3021 27.6527 7.37099 27.6527H8.37676C8.44565 27.6527 8.4732 27.6803 8.4732 27.7495V28.7311C8.4732 28.8003 8.44565 28.8279 8.37676 28.8279H7.37099Z" fill="white"/>
<path d="M10.0026 22.6337C10.0026 22.5646 10.0301 22.537 10.099 22.537H11.3114C11.3803 22.537 11.4079 22.5646 11.4079 22.6337V24.998C11.4217 25.164 11.4905 25.3022 11.6283 25.399C11.7523 25.4958 11.9452 25.5511 12.1794 25.5511H12.4137C12.5514 25.5511 12.6479 25.5926 12.7168 25.6894C12.7856 25.7861 12.8132 25.9382 12.8132 26.1456C12.8132 26.5604 12.6754 26.754 12.4137 26.754C12.1657 26.754 11.9452 26.7263 11.7523 26.6572C11.5594 26.6019 11.4079 26.4636 11.2839 26.2424C11.1737 26.4498 11.0221 26.5881 10.8017 26.6572C10.595 26.7125 10.3057 26.754 9.93367 26.754H8.90035C8.76257 26.754 8.66613 26.7125 8.59724 26.6296C8.52835 26.5466 8.50079 26.3945 8.50079 26.1595C8.50079 25.9382 8.52835 25.7723 8.59724 25.6755C8.66613 25.5787 8.76257 25.5373 8.90035 25.5373H9.52034C9.72701 25.5373 9.86478 25.482 9.91989 25.3575C9.975 25.2331 10.0026 25.0257 10.0026 24.7215V22.6337ZM9.4239 21.5138C9.35501 21.5138 9.32745 21.4861 9.32745 21.417V20.4353C9.32745 20.3662 9.35501 20.3386 9.4239 20.3386H10.4297C10.4986 20.3386 10.5261 20.3662 10.5261 20.4353V21.417C10.5261 21.4861 10.4986 21.5138 10.4297 21.5138H9.4239ZM10.9532 21.5138C10.8843 21.5138 10.8568 21.4861 10.8568 21.417V20.4353C10.8568 20.3662 10.8843 20.3386 10.9532 20.3386H11.959C12.0279 20.3386 12.0554 20.3662 12.0554 20.4353V21.417C12.0554 21.4861 12.0279 21.5138 11.959 21.5138H10.9532Z" fill="white"/>
<path d="M18.4346 26.7678C18.1728 26.7678 17.9661 26.7125 17.8008 26.6157C17.6354 26.5189 17.5114 26.3945 17.4288 26.2286C17.3323 26.436 17.1946 26.5742 17.0017 26.6572C16.8088 26.7263 16.547 26.7678 16.2301 26.7678H15.8444C15.5826 26.7678 15.3759 26.7125 15.2106 26.6157C15.0452 26.5189 14.9212 26.3945 14.8248 26.2286C14.7284 26.436 14.5906 26.588 14.3977 26.6572C14.2048 26.7263 13.943 26.7678 13.6124 26.7678H12.4137C12.2759 26.7678 12.1795 26.7263 12.1106 26.6572C12.0417 26.5742 12.0142 26.436 12.0142 26.2147C12.0142 25.9797 12.0417 25.8138 12.1106 25.717C12.1795 25.6202 12.2759 25.5649 12.4137 25.5649H13.0888C13.2817 25.5649 13.4057 25.5096 13.4608 25.4128C13.5159 25.316 13.5435 25.1363 13.5435 24.8736V23.3665C13.5435 23.2974 13.571 23.2697 13.6399 23.2697H14.8661C14.935 23.2697 14.9626 23.2974 14.9626 23.3665V25.0118C14.9626 25.2331 15.0315 25.3713 15.1692 25.4405C15.307 25.5096 15.4448 25.5511 15.6101 25.5511C15.7341 25.5511 15.8444 25.5372 15.9132 25.5096C15.9959 25.4819 16.051 25.4405 16.0786 25.3852C16.1061 25.3298 16.1337 25.2607 16.1475 25.1639C16.1612 25.0671 16.1612 24.9565 16.1612 24.8321V23.3527C16.1612 23.2835 16.1888 23.2559 16.2577 23.2559H17.4839C17.5528 23.2559 17.5803 23.2835 17.5803 23.3527V24.9842C17.5803 25.2054 17.6492 25.3575 17.787 25.4266C17.9248 25.4958 18.0763 25.5372 18.2554 25.5372C18.3794 25.5372 18.4759 25.5234 18.5448 25.4958C18.6137 25.4681 18.655 25.4266 18.6963 25.3713C18.7239 25.316 18.7514 25.2469 18.7514 25.1501C18.7514 25.0533 18.7652 24.9427 18.7652 24.8183V22.6337C18.7652 22.5646 18.7928 22.5369 18.8617 22.5369H20.0879C20.1568 22.5369 20.1843 22.5646 20.1843 22.6337V24.998C20.1981 25.1639 20.267 25.3022 20.4048 25.399C20.5288 25.4958 20.7216 25.5511 20.9559 25.5511H21.1901C21.3279 25.5511 21.4243 25.5925 21.4932 25.6893C21.5621 25.7861 21.5896 25.9382 21.5896 26.1456C21.5896 26.5604 21.4519 26.754 21.1901 26.754C20.9421 26.754 20.7216 26.7263 20.5288 26.6572C20.3359 26.6019 20.1843 26.4636 20.0603 26.2424C19.9639 26.436 19.8261 26.5742 19.647 26.6433C19.4679 26.7125 19.2612 26.754 19.027 26.754H18.4346V26.7678Z" fill="white"/>
<path d="M21.1487 26.7678C21.0109 26.7678 20.9145 26.7263 20.8456 26.6295C20.7767 26.5327 20.7491 26.3806 20.7491 26.1732C20.7491 25.952 20.7767 25.7999 20.8456 25.6893C20.9145 25.5925 21.0109 25.5372 21.1487 25.5372H23.6287C23.794 25.5372 23.918 25.5234 24.0145 25.4958C24.1109 25.4681 24.1936 25.4266 24.2487 25.3575C24.3038 25.2884 24.3451 25.2054 24.3727 25.0948C24.4002 24.9842 24.414 24.8459 24.414 24.6662C24.414 24.5279 24.4002 24.3897 24.3589 24.2652C24.3313 24.1408 24.2624 24.0163 24.1936 23.9196C24.1109 23.8089 24.0145 23.726 23.8767 23.6707C23.7389 23.6154 23.5873 23.5739 23.3945 23.5739C23.174 23.5739 22.9949 23.6154 22.8296 23.6983C22.6642 23.7813 22.5127 23.8919 22.3749 24.0163C22.3336 24.0578 22.2785 24.0716 22.2371 24.0302L21.6447 23.3112C21.5896 23.2559 21.5758 23.2006 21.6171 23.1591C21.8514 22.9379 22.1131 22.7443 22.4162 22.5922C22.7194 22.4401 23.0913 22.3572 23.546 22.3572C23.9731 22.3572 24.3313 22.4263 24.6344 22.5507C24.9376 22.6752 25.1718 22.8549 25.3647 23.0623C25.5575 23.2835 25.6815 23.5324 25.7642 23.8089C25.8469 24.0993 25.8882 24.4035 25.8882 24.7215C25.8882 25.1501 25.8469 25.4819 25.778 25.7446C25.6953 26.0073 25.5851 26.2147 25.4473 26.3668C25.3096 26.5189 25.1304 26.6157 24.9238 26.671C24.7171 26.7263 24.4691 26.754 24.2073 26.754H21.1487V26.7678ZM22.9536 28.8003C22.8847 28.8003 22.8571 28.7726 22.8571 28.7035V27.7218C22.8571 27.6527 22.8847 27.625 22.9536 27.625H24.1936C24.2624 27.625 24.29 27.6527 24.29 27.7218V28.7035C24.29 28.7726 24.2624 28.8003 24.1936 28.8003H22.9536Z" fill="white"/>
<path d="M27.7482 28.8279C27.6794 28.8279 27.6518 28.8003 27.6518 28.7311V27.708C27.6518 27.6388 27.6794 27.6112 27.7482 27.6112H28.9056C29.0433 27.6112 29.1673 27.5974 29.2776 27.5697C29.3878 27.5421 29.4842 27.5006 29.5531 27.4453C29.622 27.39 29.6771 27.2932 29.7185 27.1826C29.7598 27.072 29.7736 26.9337 29.7736 26.754H28.8091C28.1616 26.754 27.6518 26.6019 27.3074 26.2839C26.9629 25.9659 26.7838 25.4266 26.7838 24.6662C26.7838 24.2376 26.8389 23.8781 26.9629 23.5877C27.0869 23.2974 27.2523 23.0623 27.4589 22.8688C27.6656 22.689 27.8998 22.5507 28.1616 22.4816C28.4234 22.3987 28.6989 22.3572 28.9745 22.3572C29.2638 22.3572 29.5531 22.3987 29.8149 22.4678C30.0767 22.5369 30.3109 22.6614 30.5176 22.8411C30.7242 23.007 30.8758 23.2421 30.9998 23.5324C31.11 23.8228 31.1789 24.1823 31.1789 24.6109V25.5511H31.854C32.1158 25.5511 32.2535 25.7585 32.2535 26.1594C32.2535 26.4083 32.226 26.5742 32.1571 26.6572C32.0882 26.7401 31.9918 26.7678 31.854 26.7678H31.1789V26.9614C31.1789 27.5974 31.0136 28.0536 30.6967 28.3716C30.3798 28.6758 29.8838 28.8279 29.2087 28.8279H27.7482ZM28.9882 23.5739C28.7265 23.5739 28.5198 23.6707 28.3682 23.8504C28.2305 24.044 28.1478 24.2929 28.1478 24.6109C28.1478 24.9842 28.2305 25.2192 28.382 25.3437C28.5336 25.4681 28.7402 25.5234 29.002 25.5234H29.7736V24.5556C29.7873 23.9057 29.5256 23.5739 28.9882 23.5739Z" fill="white"/>
<path d="M32.6807 20.0344C32.6807 19.9652 32.7082 19.9376 32.7771 19.9376H34.0033C34.0722 19.9376 34.0998 19.9652 34.0998 20.0344V25.0119C34.1136 25.1916 34.1824 25.316 34.3064 25.4128C34.4304 25.5096 34.6233 25.5511 34.8576 25.5511H35.0918C35.2295 25.5511 35.326 25.5926 35.3949 25.6894C35.4638 25.7861 35.4913 25.9382 35.4913 26.1456C35.4913 26.5604 35.3535 26.754 35.0918 26.754C34.8438 26.754 34.6233 26.7263 34.4304 26.6572C34.2376 26.6019 34.086 26.4636 33.962 26.2424C33.8656 26.436 33.714 26.5742 33.5211 26.6434C33.3282 26.7125 33.0665 26.754 32.7496 26.754H31.854C31.7162 26.754 31.6198 26.7263 31.5509 26.6848C31.482 26.6434 31.4545 26.5466 31.4545 26.4083C31.4545 26.3254 31.4682 26.2424 31.482 26.1318C31.4958 26.035 31.5234 25.9382 31.5509 25.8553C31.5785 25.7723 31.6198 25.6894 31.6749 25.634C31.73 25.5787 31.7851 25.5373 31.854 25.5373H32.1985C32.3087 25.5373 32.4051 25.5234 32.474 25.482C32.5429 25.4405 32.5842 25.3852 32.6256 25.3022C32.6531 25.2193 32.6807 25.1363 32.6807 25.0119C32.6807 24.9012 32.6945 24.763 32.6945 24.6247V20.0344H32.6807Z" fill="white"/>
<path d="M35.0917 26.7677C34.9539 26.7677 34.8575 26.7401 34.7886 26.6986C34.7197 26.6571 34.6921 26.5604 34.6921 26.4221C34.6921 26.3391 34.7059 26.2562 34.7197 26.1456C34.7335 26.0488 34.761 25.952 34.7886 25.869C34.8161 25.7861 34.8575 25.7031 34.9126 25.6478C34.9677 25.5925 35.0228 25.551 35.0917 25.551H35.4361C35.6015 25.551 35.7255 25.5095 35.8081 25.4404C35.8908 25.3575 35.9183 25.2192 35.9183 25.0256V20.0481C35.9183 19.979 35.9459 19.9514 36.0148 19.9514H37.241C37.3099 19.9514 37.3374 19.979 37.3374 20.0481V25.4957C37.3374 25.9243 37.241 26.2562 37.0619 26.4497C36.8828 26.6571 36.5797 26.7539 36.1663 26.7539H35.0917V26.7677Z" fill="white"/>
<path d="M39.9552 26.6572C39.9552 26.7263 39.9276 26.754 39.8587 26.754H38.6463C38.5774 26.754 38.5499 26.7263 38.5499 26.6572V20.0344C38.5499 19.9652 38.5774 19.9376 38.6463 19.9376H39.8587C39.9276 19.9376 39.9552 19.9652 39.9552 20.0344V26.6572Z" fill="white"/>
<path d="M49.4481 25.4267C49.5307 25.3437 49.5583 25.2054 49.5583 25.0119V22.6337C49.5583 22.5646 49.5858 22.537 49.6547 22.537H50.8809C50.9498 22.537 50.9774 22.5646 50.9774 22.6337V25.4958C50.9774 25.9244 50.8809 26.2562 50.7018 26.4498C50.5227 26.6572 50.2196 26.754 49.7787 26.754H44.5846C44.1574 26.754 43.8681 26.6572 43.689 26.4498C43.5099 26.2424 43.4135 25.9244 43.4135 25.4958V23.2836C43.4135 23.2145 43.441 23.1868 43.5099 23.1868H44.7361C44.805 23.1868 44.8325 23.2145 44.8325 23.2836V25.0257C44.8325 25.2331 44.8739 25.3714 44.9428 25.4405C45.0254 25.5235 45.1357 25.5511 45.3148 25.5511H49.0623C49.2414 25.5511 49.3654 25.5096 49.4481 25.4267ZM45.921 22.1083C45.8521 22.1083 45.8245 22.0807 45.8245 22.0116V21.0299C45.8245 20.9608 45.8521 20.9331 45.921 20.9331H46.9268C46.9956 20.9331 47.0232 20.9608 47.0232 21.0299V22.0116C47.0232 22.0807 46.9956 22.1083 46.9268 22.1083H45.921ZM47.4641 22.1083C47.3952 22.1083 47.3676 22.0807 47.3676 22.0116V21.0299C47.3676 20.9608 47.3952 20.9331 47.4641 20.9331H48.4699C48.5387 20.9331 48.5663 20.9608 48.5663 21.0299V22.0116C48.5663 22.0807 48.5387 22.1083 48.4699 22.1083H47.4641Z" fill="white"/>
<path d="M52.0795 20.0344C52.0795 19.9652 52.1071 19.9376 52.176 19.9376H53.3884C53.4573 19.9376 53.4849 19.9652 53.4849 20.0344V25.0119C53.4849 25.2193 53.5262 25.3575 53.5951 25.4267C53.6777 25.5096 53.788 25.5373 53.9671 25.5373H54.2426C54.3804 25.5373 54.4768 25.5926 54.5457 25.6894C54.6146 25.7861 54.6422 25.9521 54.6422 26.1733C54.6422 26.4083 54.6146 26.5742 54.5457 26.6434C54.4768 26.7125 54.3804 26.754 54.2426 26.754H53.2506C52.8235 26.754 52.5342 26.6572 52.3551 26.4498C52.176 26.2424 52.0795 25.9244 52.0795 25.4958V20.0344Z" fill="white"/>
<path d="M57.3564 26.8369C56.9982 26.8369 56.6813 26.7955 56.3782 26.6987C56.0751 26.6019 55.8271 26.4498 55.6342 26.2148C55.5378 26.353 55.4276 26.4498 55.3036 26.5189C55.1796 26.5881 55.0556 26.6434 54.9316 26.6849C54.8076 26.7263 54.6836 26.7402 54.5596 26.754C54.4356 26.754 54.3391 26.7678 54.2427 26.7678C54.1049 26.7678 54.0085 26.7263 53.9396 26.6434C53.8707 26.5604 53.8431 26.4083 53.8431 26.1871C53.8431 25.9521 53.8707 25.7861 53.9396 25.7032C54.0085 25.6064 54.1049 25.5649 54.2427 25.5649H54.532C54.6836 25.5649 54.8214 25.4958 54.9454 25.3714C55.0694 25.2469 55.1382 25.0119 55.152 24.6524V24.445C55.152 24.044 55.2071 23.7122 55.3311 23.4495C55.4551 23.1868 55.6205 22.9656 55.8271 22.8135C56.0338 22.6476 56.268 22.537 56.5298 22.4678C56.7916 22.3987 57.0671 22.371 57.3564 22.371C57.6458 22.371 57.9351 22.4125 58.1969 22.4816C58.4587 22.5508 58.6929 22.6752 58.8995 22.855C59.1062 23.0347 59.2715 23.2559 59.3818 23.5463C59.5058 23.8366 59.5609 24.2099 59.5609 24.6524C59.5609 25.0672 59.5058 25.399 59.3955 25.6894C59.2853 25.9659 59.12 26.2009 58.9271 26.3668C58.7342 26.5328 58.5 26.6572 58.2244 26.7402C57.9627 26.7955 57.6733 26.8369 57.3564 26.8369ZM57.3564 23.5739C56.8053 23.5739 56.5298 23.9058 56.5298 24.5832C56.5298 24.9704 56.5987 25.2331 56.7364 25.3852C56.8742 25.5373 57.0809 25.6064 57.3564 25.6064C57.632 25.6064 57.8387 25.5373 57.9764 25.3852C58.1142 25.2331 58.1831 24.9704 58.1831 24.5832C58.1693 23.9196 57.9076 23.5739 57.3564 23.5739Z" fill="white"/>
<path d="M62.2888 25.5511C62.4542 25.5511 62.5919 25.5373 62.6884 25.5096C62.7848 25.482 62.8675 25.4543 62.9088 25.399C62.9639 25.3437 62.9915 25.2746 63.0053 25.1916C63.019 25.1086 63.0328 24.998 63.0328 24.8736V24.3344C63.0328 24.0717 62.9639 23.8781 62.8124 23.7675C62.6608 23.6569 62.4404 23.5877 62.1373 23.5877H60.9799C60.9111 23.5877 60.8835 23.5601 60.8835 23.491V22.4816C60.8835 22.4125 60.9111 22.3849 60.9799 22.3849H62.5644C63.1844 22.3849 63.6666 22.5231 63.9973 22.7858C64.3279 23.0485 64.507 23.5186 64.507 24.1823V25.0119C64.5208 25.1778 64.5897 25.316 64.7275 25.4128C64.8515 25.5096 65.0444 25.5649 65.2786 25.5649H65.499C65.6368 25.5649 65.7332 25.6064 65.8021 25.7032C65.871 25.8 65.8986 25.9521 65.8986 26.1594C65.8986 26.5742 65.7608 26.7678 65.499 26.7678C65.2235 26.7678 64.9892 26.7263 64.7826 26.6572C64.5759 26.5881 64.4106 26.436 64.2866 26.2009C64.1626 26.4222 63.9973 26.5604 63.7906 26.6434C63.5839 26.7263 63.3221 26.7678 63.0053 26.7678H60.5804C60.5115 26.7678 60.4839 26.7402 60.4839 26.671V25.6617C60.4839 25.5926 60.5115 25.5649 60.5804 25.5649H62.2888V25.5511Z" fill="white"/>
<path d="M65.9261 23.1729C66.1604 22.9379 66.4221 22.7443 66.7252 22.5922C67.0283 22.4401 67.3866 22.371 67.8137 22.371C68.2546 22.371 68.6266 22.4401 68.9297 22.5646C69.2328 22.689 69.4808 22.8688 69.6737 23.09C69.8665 23.3112 70.0043 23.5739 70.087 23.8781C70.1697 24.1823 70.211 24.5141 70.211 24.8736V25.0395C70.2248 25.2054 70.3074 25.3298 70.4314 25.4266C70.5554 25.5234 70.7345 25.5649 70.9688 25.5649H71.203C71.3408 25.5649 71.4372 25.6064 71.5061 25.7032C71.575 25.7999 71.6025 25.952 71.6025 26.1594C71.6025 26.5742 71.4648 26.7678 71.203 26.7678C70.9274 26.7678 70.6794 26.7263 70.4728 26.6572C70.2661 26.588 70.1008 26.4083 69.963 26.1594C69.8252 26.3945 69.6461 26.5604 69.3981 26.6433C69.1501 26.7263 68.8608 26.7678 68.5301 26.7678H65.4852C65.3475 26.7678 65.251 26.7263 65.1821 26.6295C65.1133 26.5327 65.0857 26.3806 65.0857 26.1732C65.0857 25.9659 65.1133 25.7999 65.1821 25.7032C65.2372 25.6064 65.3475 25.5511 65.499 25.5511H67.979C68.1443 25.5511 68.2683 25.5372 68.3648 25.5096C68.4612 25.4819 68.5439 25.4405 68.599 25.3851C68.6541 25.3298 68.6954 25.2469 68.723 25.1501C68.7506 25.0533 68.7643 24.9289 68.7643 24.7768C68.7643 24.6109 68.7506 24.4588 68.7092 24.3067C68.6817 24.1546 68.6128 24.0302 68.5439 23.9196C68.4612 23.8089 68.3648 23.726 68.227 23.6569C68.0892 23.5877 67.9377 23.5601 67.7448 23.5601C67.5243 23.5601 67.3452 23.6015 67.1799 23.6845C67.0146 23.7675 66.863 23.8781 66.7252 24.0025C66.6839 24.044 66.6288 24.0578 66.5875 24.0163L65.995 23.2974C65.8986 23.2559 65.8986 23.2006 65.9261 23.1729ZM67.2488 21.5276C67.1799 21.5276 67.1523 21.4999 67.1523 21.4308V20.4491C67.1523 20.38 67.1799 20.3524 67.2488 20.3524H68.4888C68.5577 20.3524 68.5852 20.38 68.5852 20.4491V21.4308C68.5852 21.4999 68.5577 21.5276 68.4888 21.5276H67.2488Z" fill="white"/>
<path d="M71.203 26.7677C71.0652 26.7677 70.9688 26.7401 70.8999 26.6986C70.831 26.6571 70.8035 26.5604 70.8035 26.4221C70.8035 26.3391 70.8172 26.2562 70.831 26.1456C70.8448 26.035 70.8724 25.952 70.8999 25.869C70.9275 25.7861 70.9688 25.7031 71.0239 25.6478C71.079 25.5925 71.1341 25.551 71.203 25.551H71.5475C71.7128 25.551 71.8368 25.5095 71.9195 25.4404C72.0021 25.3575 72.0297 25.2192 72.0297 25.0256V20.0481C72.0297 19.979 72.0572 19.9514 72.1261 19.9514H73.3523C73.4212 19.9514 73.4488 19.979 73.4488 20.0481V25.4957C73.4488 25.9243 73.3523 26.2562 73.1732 26.4497C72.9941 26.6571 72.691 26.7539 72.2777 26.7539H71.203V26.7677Z" fill="white"/>
<path d="M76.0665 26.6572C76.0665 26.7263 76.0389 26.754 75.97 26.754H74.7576C74.6887 26.754 74.6611 26.7263 74.6611 26.6572V20.0344C74.6611 19.9652 74.6887 19.9376 74.7576 19.9376H75.97C76.0389 19.9376 76.0665 19.9652 76.0665 20.0344V26.6572Z" fill="white"/>
<path d="M78.0642 28.8279C77.9953 28.8279 77.9678 28.8003 77.9678 28.7312V27.708C77.9678 27.6389 77.9953 27.6112 78.0642 27.6112H79.2216C79.3593 27.6112 79.4696 27.5974 79.5798 27.5836C79.69 27.5697 79.7727 27.5283 79.8553 27.473C79.938 27.4176 79.9931 27.3209 80.0344 27.2103C80.0758 27.0996 80.1033 26.9476 80.1033 26.7678H79.6762C79.2767 26.7678 78.9184 26.7402 78.6016 26.6987C78.2847 26.6572 78.0091 26.5466 77.7887 26.4083C77.5682 26.2562 77.3891 26.0488 77.2789 25.7723C77.1687 25.4958 77.0998 25.1363 77.0998 24.68C77.0998 24.2514 77.1549 23.8919 77.2789 23.6016C77.4029 23.3112 77.5682 23.0762 77.7749 22.8826C77.9816 22.7029 78.2158 22.5646 78.4776 22.4955C78.7393 22.4263 79.0149 22.371 79.2904 22.371C79.5798 22.371 79.8691 22.4125 80.1309 22.4816C80.3927 22.5508 80.6269 22.6752 80.8335 22.855C81.0402 23.0209 81.1918 23.2559 81.3158 23.5463C81.4398 23.8366 81.4949 24.1961 81.4949 24.6247V26.9614C81.4949 27.5974 81.3295 28.0537 81.0127 28.3717C80.6958 28.6758 80.1998 28.8279 79.5247 28.8279H78.0642ZM79.3042 23.5739C79.0287 23.5739 78.822 23.6707 78.6842 23.8505C78.5464 24.044 78.4776 24.2929 78.4776 24.6109C78.4776 24.9842 78.5602 25.2193 78.7118 25.3437C78.8633 25.4681 79.07 25.5234 79.3318 25.5234H80.1033V24.5556C80.0895 23.9058 79.8278 23.5739 79.3042 23.5739Z" fill="white"/>
<path d="M89.9268 26.5466C89.9268 26.9752 89.858 27.3347 89.734 27.625C89.61 27.9292 89.4309 28.1643 89.1966 28.3578C88.9762 28.5514 88.7006 28.6897 88.3975 28.7865C88.0806 28.8832 87.75 28.9247 87.4055 28.9247C87.0611 28.9247 86.7304 28.8832 86.4135 28.7865C86.0967 28.6897 85.8349 28.5514 85.6007 28.3578C85.3664 28.1643 85.1873 27.9154 85.0496 27.6112C84.9118 27.307 84.8429 26.9475 84.8429 26.5189C84.8429 26.1871 84.898 25.8414 84.9944 25.4958C85.0909 25.1501 85.2287 24.8321 85.394 24.5279C85.4216 24.4865 85.4767 24.4726 85.5456 24.5003L86.6202 24.8459C86.6478 24.8598 86.6753 24.8736 86.6753 24.9012C86.6753 24.9289 86.6753 24.9566 86.6615 24.9704C86.5651 25.164 86.4824 25.3713 86.3998 25.6064C86.3171 25.8414 86.2758 26.1041 86.2758 26.3945C86.2758 26.6295 86.3033 26.8231 86.3722 26.989C86.4411 27.1549 86.5238 27.2794 86.634 27.3762C86.7442 27.473 86.8682 27.5421 87.006 27.5974C87.1438 27.6389 87.2815 27.6665 87.4193 27.6665C87.7638 27.6665 88.0255 27.5697 88.2184 27.3762C88.4113 27.1826 88.5078 26.8784 88.5078 26.4775V20.0344C88.5078 19.9652 88.5353 19.9376 88.6042 19.9376H89.8166C89.8855 19.9376 89.9131 19.9652 89.9131 20.0344V25.0119C89.9269 25.1778 89.9957 25.316 90.1335 25.4128C90.2575 25.5096 90.4504 25.5649 90.6846 25.5649H90.9188C91.0566 25.5649 91.1531 25.6064 91.222 25.7032C91.2908 25.8 91.3184 25.9521 91.3184 26.1594C91.3184 26.5742 91.1806 26.7678 90.9188 26.7678C90.7122 26.7678 90.5193 26.754 90.354 26.7125C90.1886 26.671 90.0508 26.5881 89.9268 26.4498V26.5466Z" fill="white"/>
<path d="M93.7294 22.3572C94.0739 22.3572 94.377 22.3987 94.6525 22.4678C94.9281 22.5508 95.1623 22.6614 95.3552 22.7997C95.5481 22.9379 95.6996 23.1177 95.7961 23.3389C95.9063 23.5601 95.9476 23.7952 95.9476 24.0855C95.9476 24.4035 95.8788 24.68 95.7272 24.9289C95.5756 25.1778 95.3965 25.3852 95.1623 25.5511C95.2174 25.5511 95.2725 25.5373 95.3276 25.5373C95.3828 25.5373 95.4379 25.5373 95.493 25.5373H96.5125C96.6503 25.5373 96.7467 25.5787 96.8156 25.6617C96.8845 25.7447 96.9121 25.9106 96.9121 26.1456C96.9121 26.3669 96.8845 26.5328 96.8156 26.6296C96.7467 26.7263 96.6503 26.7678 96.5125 26.7678H95.0245C94.7903 26.7678 94.5561 26.754 94.3494 26.7402C94.129 26.7263 93.9361 26.6434 93.7432 26.5328C93.5228 26.6572 93.2886 26.7263 93.0406 26.7402C92.7926 26.754 92.5721 26.7678 92.3792 26.7678H90.9326C90.7948 26.7678 90.6846 26.7263 90.6295 26.6296C90.5606 26.5328 90.533 26.3807 90.533 26.1456C90.533 25.9382 90.5606 25.7723 90.6295 25.6894C90.6984 25.5926 90.7948 25.5511 90.9326 25.5511H92.2966C92.0761 25.399 91.8832 25.1916 91.7455 24.9427C91.6077 24.6939 91.525 24.4035 91.525 24.0993C91.525 23.8228 91.5801 23.5739 91.6766 23.3527C91.7868 23.1453 91.9246 22.9656 92.1175 22.8135C92.3103 22.6752 92.5446 22.5646 92.8201 22.4816C93.0819 22.3987 93.3988 22.3572 93.7294 22.3572ZM92.4894 21.5138C92.4206 21.5138 92.393 21.4861 92.393 21.417V20.4353C92.393 20.3662 92.4206 20.3386 92.4894 20.3386H93.4952C93.5641 20.3386 93.5917 20.3662 93.5917 20.4353V21.417C93.5917 21.4861 93.5641 21.5138 93.4952 21.5138H92.4894ZM93.7294 23.3527C93.5228 23.3527 93.3299 23.4218 93.1646 23.5601C92.9992 23.6984 92.9166 23.9058 92.9166 24.1961C92.9166 24.5003 92.9992 24.7492 93.1508 24.9289C93.3161 25.1087 93.4952 25.2607 93.7157 25.3714C93.9361 25.2607 94.129 25.1225 94.2805 24.9289C94.4321 24.7353 94.5148 24.5003 94.5148 24.1961C94.5148 23.9058 94.4321 23.6845 94.2668 23.5601C94.129 23.4218 93.9361 23.3527 93.7294 23.3527ZM94.0188 21.5138C93.9499 21.5138 93.9223 21.4861 93.9223 21.417V20.4353C93.9223 20.3662 93.9499 20.3386 94.0188 20.3386H95.0245C95.0934 20.3386 95.121 20.3662 95.121 20.4353V21.417C95.121 21.4861 95.0934 21.5138 95.0245 21.5138H94.0188Z" fill="white"/>
<path d="M98.6619 26.2562C98.5517 26.4636 98.3863 26.6019 98.1935 26.6572C97.9868 26.7263 97.7112 26.754 97.353 26.754H96.5539C96.4161 26.754 96.3197 26.7263 96.2508 26.6849C96.1819 26.6434 96.1544 26.5466 96.1544 26.3945C96.1544 26.3115 96.1544 26.2148 96.1681 26.118C96.1819 26.0212 96.2095 25.9244 96.237 25.8414C96.2646 25.7585 96.3197 25.6894 96.361 25.6202C96.4161 25.5649 96.485 25.5373 96.5677 25.5373H96.8984C97.105 25.5373 97.2428 25.482 97.2979 25.3575C97.353 25.2469 97.3806 25.0257 97.3806 24.7353V22.6199C97.3806 22.5646 97.4357 22.537 97.5321 22.5231C97.6286 22.5093 97.7112 22.5093 97.7939 22.5093H98.717C98.7859 22.5093 98.8134 22.537 98.8134 22.6061V24.9704C98.8272 25.1363 98.8961 25.2746 99.0339 25.3714C99.1579 25.4681 99.3508 25.5234 99.585 25.5234H99.8192C99.957 25.5234 100.053 25.5649 100.122 25.6617C100.191 25.7585 100.219 25.9106 100.219 26.118C100.219 26.5328 100.081 26.7263 99.8192 26.7263C99.5712 26.7263 99.3508 26.6987 99.1579 26.6296C98.9512 26.6157 98.7997 26.4775 98.6619 26.2562ZM97.477 21.5138C97.4081 21.5138 97.3806 21.4861 97.3806 21.417V20.4353C97.3806 20.3662 97.4081 20.3386 97.477 20.3386H98.717C98.7859 20.3386 98.8134 20.3662 98.8134 20.4353V21.417C98.8134 21.4861 98.7859 21.5138 98.717 21.5138H97.477Z" fill="white"/>
<path d="M99.7641 26.7677C99.6263 26.7677 99.5299 26.7401 99.461 26.6986C99.3921 26.6571 99.3646 26.5604 99.3646 26.4221C99.3646 26.3391 99.3783 26.2562 99.3921 26.1456C99.4059 26.035 99.4335 25.952 99.461 25.869C99.4886 25.7861 99.5299 25.7031 99.585 25.6478C99.6401 25.5925 99.6952 25.551 99.7641 25.551H100.109C100.274 25.551 100.398 25.5095 100.481 25.4404C100.563 25.3575 100.591 25.2192 100.591 25.0256V20.0481C100.591 19.979 100.618 19.9514 100.687 19.9514H101.913C101.982 19.9514 102.01 19.979 102.01 20.0481V25.4957C102.01 25.9243 101.913 26.2562 101.734 26.4497C101.555 26.6571 101.252 26.7539 100.839 26.7539H99.7641V26.7677Z" fill="white"/>
<path d="M104.628 26.6572C104.628 26.7263 104.6 26.754 104.531 26.754H103.319C103.25 26.754 103.222 26.7263 103.222 26.6572V20.0344C103.222 19.9652 103.25 19.9376 103.319 19.9376H104.531C104.6 19.9376 104.628 19.9652 104.628 20.0344V26.6572Z" fill="white"/>
<path d="M110.221 26.8369C109.904 26.8369 109.615 26.7955 109.34 26.7263C109.064 26.6572 108.83 26.5328 108.637 26.353C108.444 26.1871 108.279 25.9521 108.168 25.6755C108.058 25.399 108.003 25.0533 108.003 24.6386C108.003 24.1961 108.058 23.8366 108.182 23.5324C108.306 23.2421 108.458 23.007 108.664 22.8411C108.871 22.6614 109.105 22.537 109.367 22.4678C109.629 22.3987 109.918 22.3572 110.208 22.3572C110.497 22.3572 110.786 22.3987 111.048 22.4678C111.31 22.537 111.544 22.6614 111.751 22.8411C111.957 23.0209 112.123 23.2421 112.233 23.5324C112.357 23.8228 112.412 24.1961 112.412 24.6386C112.412 25.0533 112.357 25.3852 112.247 25.6755C112.136 25.9521 111.985 26.1871 111.778 26.353C111.585 26.5189 111.351 26.6434 111.076 26.7263C110.828 26.7955 110.524 26.8369 110.221 26.8369ZM108.94 21.5138C108.871 21.5138 108.844 21.4861 108.844 21.417V20.4353C108.844 20.3662 108.871 20.3386 108.94 20.3386H109.946C110.015 20.3386 110.042 20.3662 110.042 20.4353V21.417C110.042 21.4861 110.015 21.5138 109.946 21.5138H108.94ZM110.221 23.5739C109.67 23.5739 109.395 23.9058 109.395 24.5833C109.395 24.9704 109.464 25.2331 109.601 25.3852C109.739 25.5373 109.946 25.6064 110.208 25.6064C110.483 25.6064 110.69 25.5373 110.828 25.3852C110.965 25.2331 111.034 24.9704 111.034 24.5833C111.034 23.9196 110.759 23.5739 110.221 23.5739ZM110.483 21.5138C110.414 21.5138 110.387 21.4861 110.387 21.417V20.4353C110.387 20.3662 110.414 20.3386 110.483 20.3386H111.489C111.558 20.3386 111.585 20.3662 111.585 20.4353V21.417C111.585 21.4861 111.558 21.5138 111.489 21.5138H110.483Z" fill="white"/>
<path d="M113.032 28.8279C112.963 28.8279 112.936 28.8003 112.936 28.7311V27.708C112.936 27.6388 112.963 27.6112 113.032 27.6112H113.252C113.528 27.6112 113.721 27.5421 113.831 27.4038C113.941 27.2655 114.01 27.0443 114.01 26.7678V22.6475C114.01 22.5784 114.038 22.5508 114.107 22.5508H115.333C115.402 22.5508 115.429 22.5784 115.429 22.6475V26.8093C115.429 27.5006 115.264 28.0122 114.947 28.3302C114.63 28.662 114.134 28.8279 113.487 28.8279H113.032Z" fill="white"/>
<path d="M118.006 26.6572C118.006 26.7263 117.978 26.754 117.909 26.754H116.697C116.628 26.754 116.6 26.7263 116.6 26.6572V20.0344C116.6 19.9652 116.628 19.9376 116.697 19.9376H117.909C117.978 19.9376 118.006 19.9652 118.006 20.0344V26.6572Z" fill="white"/>
<path d="M118.736 28.8279C118.667 28.8279 118.639 28.8003 118.639 28.7312V27.708C118.639 27.6389 118.667 27.6112 118.736 27.6112H118.956C119.232 27.6112 119.425 27.5421 119.535 27.4038C119.645 27.2656 119.714 27.0443 119.714 26.7678V22.6476C119.714 22.5784 119.742 22.5508 119.811 22.5508H121.037C121.106 22.5508 121.133 22.5784 121.133 22.6476V26.8093C121.133 27.5006 120.968 28.0122 120.651 28.3302C120.334 28.662 119.838 28.8279 119.191 28.8279H118.736ZM119.797 21.5138C119.728 21.5138 119.7 21.4861 119.7 21.417V20.4353C119.7 20.3662 119.728 20.3386 119.797 20.3386H121.037C121.106 20.3386 121.133 20.3662 121.133 20.4353V21.417C121.133 21.4861 121.106 21.5138 121.037 21.5138H119.797Z" fill="white"/>
<path d="M123.103 28.8279C123.035 28.8279 123.007 28.8003 123.007 28.7312V27.708C123.007 27.6389 123.035 27.6112 123.103 27.6112H124.261C124.399 27.6112 124.509 27.5974 124.619 27.5836C124.729 27.5697 124.812 27.5283 124.895 27.473C124.977 27.4176 125.032 27.3209 125.074 27.2103C125.115 27.0996 125.143 26.9476 125.143 26.7678H124.715C124.316 26.7678 123.958 26.7402 123.641 26.6987C123.324 26.6572 123.048 26.5466 122.828 26.4083C122.607 26.2562 122.428 26.0488 122.318 25.7723C122.208 25.4958 122.139 25.1363 122.139 24.68C122.139 24.2514 122.194 23.8919 122.318 23.6016C122.442 23.3112 122.607 23.0762 122.814 22.8826C123.021 22.7029 123.255 22.5646 123.517 22.4955C123.779 22.4263 124.054 22.371 124.33 22.371C124.619 22.371 124.908 22.4125 125.17 22.4816C125.432 22.5508 125.666 22.6752 125.873 22.855C126.079 23.0209 126.231 23.2559 126.355 23.5463C126.479 23.8366 126.534 24.1961 126.534 24.6247V26.9614C126.534 27.5974 126.369 28.0537 126.052 28.3717C125.735 28.6758 125.239 28.8279 124.564 28.8279H123.103ZM124.343 23.5739C124.068 23.5739 123.861 23.6707 123.723 23.8505C123.586 24.044 123.517 24.2929 123.517 24.6109C123.517 24.9842 123.599 25.2193 123.751 25.3437C123.903 25.4681 124.109 25.5234 124.371 25.5234H125.143V24.5556C125.143 23.9058 124.881 23.5739 124.343 23.5739Z" fill="white"/>
<path d="M0.0413208 31.3305C0.0413208 31.2891 0.0550984 31.2752 0.0964314 31.2752H0.81287C0.86798 31.2752 0.895536 31.2891 0.909313 31.3305L1.95642 33.6948H1.98397L3.00352 31.3305C3.0173 31.2891 3.05863 31.2752 3.09996 31.2752H3.80262C3.84396 31.2752 3.85773 31.2891 3.85773 31.3305V35.3402C3.85773 35.3817 3.84396 35.3955 3.80262 35.3955H3.11374C3.07241 35.3955 3.05863 35.3817 3.05863 35.3402V33.0035H3.04485L2.28708 34.7595C2.25952 34.8148 2.21819 34.8424 2.17686 34.8424H1.76353C1.70842 34.8424 1.66709 34.8148 1.65331 34.7595L0.895536 33.0174H0.867981V35.354C0.867981 35.3955 0.854203 35.4093 0.81287 35.4093H0.123987C0.0826536 35.4093 0.068876 35.3955 0.068876 35.354V31.3305H0.0413208Z" fill="white"/>
<path d="M5.00128 31.9942C4.95994 31.9942 4.94617 31.9804 4.94617 31.9389V31.3305C4.94617 31.2891 4.95994 31.2752 5.00128 31.2752H5.73149C5.77283 31.2752 5.7866 31.2891 5.7866 31.3305V31.9389C5.7866 31.9804 5.77283 31.9942 5.73149 31.9942H5.00128ZM5.00128 35.4093C4.95994 35.4093 4.94617 35.3955 4.94617 35.354V32.5334C4.94617 32.492 4.95994 32.4781 5.00128 32.4781H5.73149C5.77283 32.4781 5.7866 32.492 5.7866 32.5334V35.354C5.7866 35.3955 5.77283 35.4093 5.73149 35.4093H5.00128Z" fill="white"/>
<path d="M8.66613 35.4093C8.62479 35.4093 8.61101 35.3955 8.61101 35.354V33.6533C8.61101 33.4874 8.56968 33.363 8.50079 33.2662C8.4319 33.1694 8.30791 33.1141 8.15635 33.1141C8.0048 33.1141 7.89458 33.1694 7.81191 33.2662C7.72924 33.363 7.68791 33.4874 7.68791 33.6533V35.3402C7.68791 35.3816 7.67413 35.3955 7.6328 35.3955H6.90258C6.86125 35.3955 6.84747 35.3816 6.84747 35.3402V32.5196C6.84747 32.4781 6.86125 32.4643 6.90258 32.4643H7.6328C7.67413 32.4643 7.68791 32.4781 7.68791 32.5196V32.727C7.7568 32.6302 7.85324 32.5611 7.97724 32.4919C8.10124 32.4228 8.25279 32.3951 8.44568 32.3951C8.61101 32.3951 8.74879 32.4228 8.87279 32.4781C8.99679 32.5334 9.10701 32.6025 9.18968 32.6993C9.27234 32.7961 9.34123 32.9067 9.38256 33.045C9.4239 33.1832 9.45145 33.3215 9.45145 33.4874V35.3402C9.45145 35.3816 9.43767 35.3955 9.39634 35.3955H8.66613V35.4093Z" fill="white"/>
<path d="M10.5399 31.9942C10.4986 31.9942 10.4848 31.9804 10.4848 31.9389V31.3305C10.4848 31.2891 10.4986 31.2752 10.5399 31.2752H11.2701C11.3115 31.2752 11.3252 31.2891 11.3252 31.3305V31.9389C11.3252 31.9804 11.3115 31.9942 11.2701 31.9942H10.5399ZM10.5399 35.4093C10.4986 35.4093 10.4848 35.3955 10.4848 35.354V32.5334C10.4848 32.492 10.4986 32.4781 10.5399 32.4781H11.2701C11.3115 32.4781 11.3252 32.492 11.3252 32.5334V35.354C11.3252 35.3955 11.3115 35.4093 11.2701 35.4093H10.5399Z" fill="white"/>
<path d="M13.5296 35.4784C13.2265 35.4784 12.9647 35.4369 12.7443 35.3402C12.5238 35.2434 12.3447 35.1466 12.2069 35.0221C12.1794 34.9945 12.1794 34.9668 12.2069 34.9392L12.6065 34.4967C12.6341 34.4691 12.6616 34.4691 12.6892 34.4967C12.8132 34.5935 12.9647 34.6765 13.1163 34.7318C13.2678 34.7871 13.4332 34.8148 13.5847 34.8148C13.7363 34.8148 13.8465 34.7871 13.9292 34.7318C13.998 34.6765 14.0394 34.6074 14.0394 34.5244C14.0394 34.4553 14.0118 34.4 13.9567 34.3585C13.9016 34.317 13.7914 34.2894 13.626 34.2755L13.2954 34.234C12.9785 34.2064 12.7443 34.1096 12.5789 33.9575C12.4136 33.8054 12.3309 33.598 12.3309 33.3353C12.3309 33.045 12.4412 32.8099 12.6478 32.644C12.8545 32.4781 13.1576 32.3951 13.5434 32.3951C13.7914 32.3951 14.0256 32.4228 14.2185 32.4919C14.4252 32.5611 14.5905 32.644 14.7283 32.7546C14.7558 32.7823 14.7558 32.8099 14.7283 32.8514L14.3838 33.2662C14.3563 33.2939 14.3287 33.2939 14.3012 33.28C14.2047 33.2109 14.0807 33.1556 13.9429 33.1141C13.8052 33.0726 13.6536 33.045 13.502 33.045C13.378 33.045 13.2816 33.0726 13.2265 33.1141C13.1714 33.1556 13.13 33.2109 13.13 33.2939C13.13 33.363 13.1576 33.4183 13.2127 33.4598C13.2678 33.5013 13.378 33.5289 13.5434 33.5427L13.8603 33.5842C14.2047 33.6119 14.4527 33.7086 14.6043 33.8746C14.7558 34.0267 14.8385 34.234 14.8385 34.4829C14.8385 34.7871 14.7145 35.036 14.494 35.2157C14.2736 35.3955 13.9429 35.4784 13.5296 35.4784Z" fill="white"/>
<path d="M16.7123 35.4369C16.3679 35.4369 16.1337 35.354 15.9959 35.2019C15.8581 35.0498 15.7892 34.8009 15.7892 34.4553V33.1141C15.7892 33.0865 15.7754 33.0726 15.7479 33.0726H15.5688C15.5274 33.0726 15.5137 33.0588 15.5137 33.0173V32.5057C15.5137 32.4643 15.5274 32.4504 15.5688 32.4504H15.7479C15.7754 32.4504 15.7892 32.4366 15.7892 32.409V31.6209C15.7892 31.5794 15.803 31.5656 15.8443 31.5656H16.5608C16.6021 31.5656 16.6159 31.5794 16.6159 31.6209V32.409C16.6159 32.4366 16.6297 32.4504 16.6572 32.4504H17.0292C17.0705 32.4504 17.0843 32.4643 17.0843 32.5057V33.0173C17.0843 33.0588 17.0705 33.0726 17.0292 33.0726H16.6572C16.6297 33.0726 16.6159 33.0865 16.6159 33.1141V34.4138C16.6159 34.5244 16.6297 34.5935 16.671 34.6488C16.7123 34.6903 16.7812 34.718 16.8777 34.718H17.0292C17.0705 34.718 17.0843 34.7318 17.0843 34.7733V35.3816C17.0843 35.4231 17.0705 35.4369 17.0292 35.4369H16.7123Z" fill="white"/>
<path d="M18.0763 35.4093C18.035 35.4093 18.0212 35.3955 18.0212 35.354V32.5334C18.0212 32.492 18.035 32.4781 18.0763 32.4781H18.8065C18.8478 32.4781 18.8616 32.492 18.8616 32.5334V32.7823C18.9305 32.6579 19.0269 32.5749 19.1647 32.5058C19.2887 32.4367 19.4541 32.409 19.6332 32.409C19.7296 32.409 19.8261 32.4228 19.9087 32.4505C19.9914 32.4781 20.0741 32.5196 20.1429 32.5749C20.1705 32.6026 20.1705 32.6302 20.1567 32.6579L19.8123 33.2801C19.7985 33.3077 19.7572 33.3077 19.7296 33.2939C19.5781 33.1971 19.4403 33.1556 19.3025 33.1556C19.1509 33.1694 19.0269 33.2248 18.9581 33.3354C18.8892 33.446 18.8478 33.5981 18.8478 33.7916V35.3402C18.8478 35.3817 18.8341 35.3955 18.7927 35.3955H18.0763V35.4093Z" fill="white"/>
<path d="M21.066 36.5016C21.0247 36.5016 21.0109 36.4877 21.0109 36.4463V35.8517C21.0109 35.8102 21.0247 35.7964 21.066 35.7964H21.19C21.3003 35.7964 21.3829 35.7688 21.438 35.7273C21.5069 35.6858 21.5483 35.6028 21.5896 35.4922L21.6723 35.271L20.5838 32.5334C20.57 32.4919 20.5838 32.4781 20.6389 32.4781H21.4105C21.4518 32.4781 21.4656 32.4919 21.4794 32.5334L22.0718 34.234H22.0856L22.6367 32.5334C22.6505 32.4919 22.678 32.4781 22.7056 32.4781H23.4634C23.5047 32.4781 23.5185 32.4919 23.5185 32.5334L22.3336 35.672C22.2785 35.8379 22.2096 35.9762 22.1407 36.0729C22.0718 36.1697 22.0029 36.2665 21.9203 36.3356C21.8376 36.4048 21.7549 36.4462 21.6447 36.4739C21.5483 36.5016 21.4243 36.5154 21.2865 36.5154H21.066V36.5016Z" fill="white"/>
<path d="M27.1834 35.4784C26.8665 35.4784 26.6047 35.4093 26.3705 35.2711C26.15 35.1328 25.9847 34.9254 25.902 34.6627C25.8745 34.5521 25.8469 34.4553 25.8332 34.3309C25.8194 34.2202 25.8056 34.0958 25.8056 33.9437C25.8056 33.7916 25.8194 33.6672 25.8332 33.5566C25.8469 33.446 25.8745 33.3354 25.902 33.2248C25.9847 32.962 26.1363 32.7547 26.3705 32.6164C26.5909 32.4781 26.8665 32.409 27.1834 32.409C27.5003 32.409 27.762 32.4781 27.9963 32.6164C28.2167 32.7547 28.382 32.962 28.4647 33.2248C28.4922 33.3354 28.5198 33.4321 28.5336 33.5566C28.5474 33.6672 28.5611 33.7916 28.5611 33.9437C28.5611 34.0958 28.5474 34.2202 28.5336 34.3309C28.5198 34.4415 28.4922 34.5521 28.4647 34.6627C28.382 34.9254 28.2305 35.1328 27.9963 35.2711C27.762 35.4093 27.4865 35.4784 27.1834 35.4784ZM27.1834 34.7595C27.4176 34.7595 27.5691 34.6489 27.638 34.4415C27.6518 34.3723 27.6656 34.3032 27.6794 34.2341C27.6931 34.1649 27.6931 34.0682 27.6931 33.9437C27.6931 33.8193 27.6931 33.7225 27.6794 33.6534C27.6656 33.5842 27.6518 33.5151 27.638 33.446C27.5691 33.2386 27.4176 33.128 27.1834 33.128C26.9491 33.128 26.7976 33.2386 26.7287 33.446C26.7149 33.5151 26.7012 33.5842 26.6874 33.6534C26.6736 33.7225 26.6736 33.8193 26.6736 33.9437C26.6736 34.0682 26.6736 34.1649 26.6874 34.2341C26.7012 34.3032 26.7149 34.3723 26.7287 34.4415C26.7976 34.6489 26.9491 34.7595 27.1834 34.7595Z" fill="white"/>
<path d="M29.6219 35.4093C29.5806 35.4093 29.5668 35.3955 29.5668 35.354V33.128C29.5668 33.1003 29.553 33.0865 29.5255 33.0865H29.3464C29.305 33.0865 29.2913 33.0727 29.2913 33.0312V32.5196C29.2913 32.4781 29.305 32.4643 29.3464 32.4643H29.5255C29.553 32.4643 29.5668 32.4505 29.5668 32.4228V32.2846C29.5668 31.9251 29.6495 31.6624 29.8148 31.5103C29.9801 31.3582 30.2419 31.2752 30.6001 31.2752H30.9308C30.9721 31.2752 30.9859 31.2891 30.9859 31.3305V31.8974C30.9859 31.9389 30.9721 31.9527 30.9308 31.9527H30.7379C30.6001 31.9527 30.5175 31.9804 30.4761 32.0219C30.4348 32.0633 30.4073 32.1463 30.4073 32.2707V32.4228C30.4073 32.4505 30.421 32.4643 30.4486 32.4643H30.9308C30.9721 32.4643 30.9859 32.4781 30.9859 32.5196V33.0312C30.9859 33.0727 30.9721 33.0865 30.9308 33.0865H30.4486C30.421 33.0865 30.4073 33.1003 30.4073 33.128V35.354C30.4073 35.3955 30.3935 35.4093 30.3521 35.4093H29.6219Z" fill="white"/>
<path d="M34.3614 35.4093C34.3201 35.4093 34.3063 35.3955 34.3063 35.354V32.1048C34.3063 32.0772 34.2925 32.0633 34.265 32.0633H33.2179C33.1766 32.0633 33.1628 32.0495 33.1628 32.008V31.3305C33.1628 31.2891 33.1766 31.2752 33.2179 31.2752H36.2628C36.3041 31.2752 36.3179 31.2891 36.3179 31.3305V32.008C36.3179 32.0495 36.3041 32.0633 36.2628 32.0633H35.2157C35.1881 32.0633 35.1743 32.0772 35.1743 32.1048V35.354C35.1743 35.3955 35.1605 35.4093 35.1192 35.4093H34.3614Z" fill="white"/>
<path d="M37.1584 35.4093C37.117 35.4093 37.1033 35.3955 37.1033 35.354V32.5334C37.1033 32.492 37.117 32.4781 37.1584 32.4781H37.8886C37.9299 32.4781 37.9437 32.492 37.9437 32.5334V32.7823C38.0126 32.6579 38.109 32.5749 38.2468 32.5058C38.3708 32.4367 38.5361 32.409 38.7153 32.409C38.8117 32.409 38.9081 32.4228 38.9908 32.4505C39.0735 32.4781 39.1561 32.5196 39.225 32.5749C39.2526 32.6026 39.2526 32.6302 39.2388 32.6579L38.8944 33.2801C38.8806 33.3077 38.8393 33.3077 38.8117 33.2939C38.6601 33.1971 38.5224 33.1556 38.3846 33.1556C38.233 33.1694 38.109 33.2248 38.0402 33.3354C37.9713 33.446 37.9299 33.5981 37.9299 33.7916V35.3402C37.9299 35.3817 37.9162 35.3955 37.8748 35.3955H37.1584V35.4093Z" fill="white"/>
<path d="M41.5396 35.4093C41.4983 35.4093 41.4845 35.3955 41.4845 35.354V35.1604C41.4019 35.2572 41.3054 35.3402 41.1814 35.3955C41.0574 35.4508 40.8921 35.4784 40.6854 35.4784C40.5614 35.4784 40.4374 35.4646 40.3134 35.4231C40.1894 35.3955 40.093 35.3402 39.9965 35.2572C39.9139 35.1881 39.8312 35.0913 39.7899 34.9807C39.7348 34.8701 39.7072 34.7318 39.7072 34.5797C39.7072 34.2617 39.8174 34.0128 40.0379 33.8607C40.2583 33.7086 40.5614 33.6257 40.9196 33.6257H41.4432C41.4708 33.6257 41.4845 33.6119 41.4845 33.5842V33.4736C41.4845 33.3353 41.4432 33.2385 41.3605 33.1694C41.2779 33.1003 41.1125 33.0726 40.8783 33.0726C40.7268 33.0726 40.6028 33.0865 40.4925 33.1279C40.3823 33.1694 40.2997 33.2109 40.2308 33.2662C40.2032 33.2939 40.1757 33.28 40.1481 33.2524L39.8725 32.7685C39.8588 32.727 39.8588 32.6993 39.8863 32.6855C40.0103 32.6025 40.1619 32.5196 40.341 32.4781C40.5201 32.4228 40.7268 32.3951 40.9748 32.3951C41.209 32.3951 41.4156 32.4228 41.581 32.4643C41.7463 32.5058 41.8841 32.5749 41.9805 32.6578C42.077 32.7408 42.1596 32.8514 42.201 32.9897C42.2423 33.1279 42.2699 33.28 42.2699 33.4598V35.3402C42.2699 35.3816 42.2561 35.3955 42.2147 35.3955H41.5396V35.4093ZM40.9334 34.8286C41.2916 34.8286 41.4845 34.6903 41.4845 34.4276V34.2202C41.4845 34.1926 41.4708 34.1787 41.4432 34.1787H41.0299C40.6854 34.1787 40.5063 34.2894 40.5063 34.5106C40.5063 34.7318 40.6441 34.8286 40.9334 34.8286Z" fill="white"/>
<path d="M45.1356 35.4093C45.0943 35.4093 45.0805 35.3955 45.0805 35.354V33.6533C45.0805 33.4874 45.0392 33.363 44.9703 33.2662C44.9014 33.1694 44.7774 33.1141 44.6258 33.1141C44.4743 33.1141 44.3641 33.1694 44.2814 33.2662C44.1987 33.363 44.1574 33.4874 44.1574 33.6533V35.3402C44.1574 35.3816 44.1436 35.3955 44.1023 35.3955H43.3721C43.3307 35.3955 43.317 35.3816 43.317 35.3402V32.5196C43.317 32.4781 43.3307 32.4643 43.3721 32.4643H44.1023C44.1436 32.4643 44.1574 32.4781 44.1574 32.5196V32.727C44.2263 32.6302 44.3227 32.5611 44.4467 32.4919C44.5707 32.4228 44.7223 32.3951 44.9152 32.3951C45.0805 32.3951 45.2183 32.4228 45.3423 32.4781C45.4663 32.5334 45.5765 32.6025 45.6592 32.6993C45.7418 32.7961 45.8107 32.9067 45.852 33.045C45.8934 33.1832 45.9209 33.3215 45.9209 33.4874V35.3402C45.9209 35.3816 45.9072 35.3955 45.8658 35.3955H45.1356V35.4093Z" fill="white"/>
<path d="M48.0978 35.4784C47.7947 35.4784 47.533 35.4369 47.3125 35.3402C47.0921 35.2434 46.913 35.1466 46.7752 35.0221C46.7476 34.9945 46.7476 34.9668 46.7752 34.9392L47.1747 34.4967C47.2023 34.4691 47.2298 34.4691 47.2574 34.4967C47.3814 34.5935 47.533 34.6765 47.6845 34.7318C47.8361 34.7871 48.0014 34.8148 48.1529 34.8148C48.3045 34.8148 48.4147 34.7871 48.4974 34.7318C48.5663 34.6765 48.6076 34.6074 48.6076 34.5244C48.6076 34.4553 48.5801 34.4 48.5249 34.3585C48.4698 34.317 48.3596 34.2894 48.1943 34.2755L47.8636 34.234C47.5467 34.2064 47.3125 34.1096 47.1472 33.9575C46.9818 33.8054 46.8992 33.598 46.8992 33.3353C46.8992 33.045 47.0094 32.8099 47.2161 32.644C47.4227 32.4781 47.7258 32.3951 48.1116 32.3951C48.3596 32.3951 48.5938 32.4228 48.7867 32.4919C48.9934 32.5611 49.1587 32.644 49.2965 32.7546C49.3241 32.7823 49.3241 32.8099 49.2965 32.8514L48.9521 33.2662C48.9245 33.2939 48.8969 33.2939 48.8694 33.28C48.7729 33.2109 48.6489 33.1556 48.5112 33.1141C48.3734 33.0726 48.2218 33.045 48.0703 33.045C47.9463 33.045 47.8498 33.0726 47.7947 33.1141C47.7396 33.1556 47.6983 33.2109 47.6983 33.2939C47.6983 33.363 47.7258 33.4183 47.781 33.4598C47.8361 33.5013 47.9463 33.5289 48.1116 33.5427L48.4285 33.5842C48.7729 33.6119 49.0209 33.7086 49.1725 33.8746C49.3241 34.0267 49.4067 34.234 49.4067 34.4829C49.4067 34.7871 49.2827 35.036 49.0623 35.2157C48.8418 35.3955 48.5249 35.4784 48.0978 35.4784Z" fill="white"/>
<path d="M50.3573 36.5016C50.316 36.5016 50.3022 36.4877 50.3022 36.4463V32.5334C50.3022 32.4919 50.316 32.4781 50.3573 32.4781H51.0875C51.1288 32.4781 51.1426 32.4919 51.1426 32.5334V32.7408C51.2115 32.644 51.308 32.5611 51.432 32.4919C51.556 32.4228 51.7213 32.3951 51.9142 32.3951C52.1622 32.3951 52.3688 32.4504 52.5342 32.5749C52.6995 32.6993 52.8235 32.8652 52.9062 33.1003C52.9475 33.2247 52.9751 33.3353 52.9888 33.4598C53.0026 33.5842 53.0164 33.7363 53.0164 33.9299C53.0164 34.1234 53.0026 34.2755 52.9888 34.4C52.9751 34.5244 52.9475 34.6488 52.9062 34.7594C52.8235 34.9945 52.6995 35.1604 52.5342 35.2848C52.3688 35.4093 52.1622 35.4646 51.9142 35.4646C51.7213 35.4646 51.556 35.4369 51.432 35.3678C51.308 35.2987 51.2115 35.2295 51.1426 35.1189V36.4324C51.1426 36.4739 51.1288 36.4877 51.0875 36.4877H50.3573V36.5016ZM51.6386 34.7594C51.8728 34.7594 52.0244 34.6488 52.0933 34.4414C52.1071 34.3861 52.1208 34.317 52.1346 34.2479C52.1484 34.1787 52.1484 34.0681 52.1484 33.9437C52.1484 33.8193 52.1484 33.7086 52.1346 33.6395C52.1208 33.5704 52.1071 33.5013 52.0933 33.4459C52.0244 33.2385 51.8728 33.1279 51.6386 33.1279C51.4044 33.1279 51.2528 33.2385 51.184 33.4459C51.1702 33.5013 51.1564 33.5704 51.1426 33.6395C51.1288 33.7086 51.1288 33.8193 51.1288 33.9437C51.1288 34.0681 51.1288 34.1787 51.1426 34.2479C51.1564 34.317 51.1702 34.3861 51.184 34.4414C51.2666 34.6488 51.4182 34.7594 51.6386 34.7594Z" fill="white"/>
<path d="M55.1383 35.4784C54.8214 35.4784 54.5596 35.4093 54.3254 35.2711C54.1049 35.1328 53.9396 34.9254 53.8569 34.6627C53.8294 34.5521 53.8018 34.4553 53.7881 34.3309C53.7743 34.2202 53.7605 34.0958 53.7605 33.9437C53.7605 33.7916 53.7743 33.6672 53.7881 33.5566C53.8018 33.446 53.8294 33.3354 53.8569 33.2248C53.9396 32.962 54.0912 32.7547 54.3254 32.6164C54.5458 32.4781 54.8214 32.409 55.1383 32.409C55.4552 32.409 55.7169 32.4781 55.9511 32.6164C56.1716 32.7547 56.3369 32.962 56.4196 33.2248C56.4471 33.3354 56.4747 33.4321 56.4885 33.5566C56.5023 33.6672 56.516 33.7916 56.516 33.9437C56.516 34.0958 56.5023 34.2202 56.4885 34.3309C56.4747 34.4415 56.4471 34.5521 56.4196 34.6627C56.3369 34.9254 56.1854 35.1328 55.9511 35.2711C55.7169 35.4093 55.4552 35.4784 55.1383 35.4784ZM55.1383 34.7595C55.3725 34.7595 55.524 34.6489 55.5929 34.4415C55.6067 34.3723 55.6205 34.3032 55.6343 34.2341C55.648 34.1649 55.648 34.0682 55.648 33.9437C55.648 33.8193 55.648 33.7225 55.6343 33.6534C55.6205 33.5842 55.6067 33.5151 55.5929 33.446C55.524 33.2386 55.3725 33.128 55.1383 33.128C54.904 33.128 54.7525 33.2386 54.6836 33.446C54.6698 33.5151 54.656 33.5842 54.6423 33.6534C54.6285 33.7225 54.6285 33.8193 54.6285 33.9437C54.6285 34.0682 54.6285 34.1649 54.6423 34.2341C54.656 34.3032 54.6698 34.3723 54.6836 34.4415C54.7525 34.6489 54.904 34.7595 55.1383 34.7595Z" fill="white"/>
<path d="M57.4804 35.4093C57.4391 35.4093 57.4253 35.3955 57.4253 35.354V32.5334C57.4253 32.492 57.4391 32.4781 57.4804 32.4781H58.2106C58.252 32.4781 58.2657 32.492 58.2657 32.5334V32.7823C58.3346 32.6579 58.4311 32.5749 58.5688 32.5058C58.6928 32.4367 58.8582 32.409 59.0373 32.409C59.1337 32.409 59.2302 32.4228 59.3128 32.4505C59.3955 32.4781 59.4782 32.5196 59.5471 32.5749C59.5746 32.6026 59.5746 32.6302 59.5608 32.6579L59.2164 33.2801C59.2026 33.3077 59.1613 33.3077 59.1337 33.2939C58.9822 33.1971 58.8444 33.1556 58.7066 33.1556C58.5551 33.1694 58.4311 33.2248 58.3622 33.3354C58.2933 33.446 58.252 33.5981 58.252 33.7916V35.3402C58.252 35.3817 58.2382 35.3955 58.1968 35.3955H57.4804V35.4093Z" fill="white"/>
<path d="M61.283 35.4369C60.9386 35.4369 60.7043 35.354 60.5666 35.2019C60.4288 35.0498 60.3599 34.8009 60.3599 34.4553V33.1141C60.3599 33.0865 60.3461 33.0726 60.3186 33.0726H60.1395C60.0981 33.0726 60.0844 33.0588 60.0844 33.0173V32.5057C60.0844 32.4643 60.0981 32.4504 60.1395 32.4504H60.3186C60.3461 32.4504 60.3599 32.4366 60.3599 32.409V31.6209C60.3599 31.5794 60.3737 31.5656 60.415 31.5656H61.1315C61.1728 31.5656 61.1866 31.5794 61.1866 31.6209V32.409C61.1866 32.4366 61.2003 32.4504 61.2279 32.4504H61.5999C61.6412 32.4504 61.655 32.4643 61.655 32.5057V33.0173C61.655 33.0588 61.6412 33.0726 61.5999 33.0726H61.2279C61.2003 33.0726 61.1866 33.0865 61.1866 33.1141V34.4138C61.1866 34.5244 61.2003 34.5935 61.2417 34.6488C61.283 34.6903 61.3519 34.718 61.4483 34.718H61.5999C61.6412 34.718 61.655 34.7318 61.655 34.7733V35.3816C61.655 35.4231 61.6412 35.4369 61.5999 35.4369H61.283Z" fill="white"/>
<path d="M66.0088 35.4093C65.9674 35.4093 65.9536 35.3955 65.9536 35.354V35.1604C65.871 35.2572 65.7745 35.3402 65.6505 35.3955C65.5265 35.4508 65.3612 35.4784 65.1545 35.4784C65.0305 35.4784 64.9065 35.4646 64.7825 35.4231C64.6585 35.3955 64.5621 35.3402 64.4657 35.2572C64.383 35.1881 64.3003 35.0913 64.259 34.9807C64.2039 34.8701 64.1763 34.7318 64.1763 34.5797C64.1763 34.2617 64.2866 34.0128 64.507 33.8607C64.7274 33.7086 65.0305 33.6257 65.3888 33.6257H65.9123C65.9399 33.6257 65.9536 33.6119 65.9536 33.5842V33.4736C65.9536 33.3353 65.9123 33.2385 65.8297 33.1694C65.747 33.1003 65.5817 33.0726 65.3474 33.0726C65.1959 33.0726 65.0719 33.0865 64.9617 33.1279C64.8514 33.1694 64.7688 33.2109 64.6999 33.2662C64.6723 33.2939 64.6448 33.28 64.6172 33.2524L64.3417 32.7685C64.3279 32.727 64.3279 32.6993 64.3554 32.6855C64.4794 32.6025 64.631 32.5196 64.8101 32.4781C64.9892 32.4228 65.1959 32.3951 65.4439 32.3951C65.6781 32.3951 65.8848 32.4228 66.0501 32.4643C66.2154 32.5058 66.3532 32.5749 66.4496 32.6578C66.5461 32.7408 66.6288 32.8514 66.6701 32.9897C66.7114 33.1279 66.739 33.28 66.739 33.4598V35.3402C66.739 35.3816 66.7252 35.3955 66.6839 35.3955H66.0088V35.4093ZM65.3888 34.8286C65.747 34.8286 65.9399 34.6903 65.9399 34.4276V34.2202C65.9399 34.1926 65.9261 34.1787 65.8985 34.1787H65.4852C65.1408 34.1787 64.9617 34.2894 64.9617 34.5106C64.9754 34.7318 65.1132 34.8286 65.3888 34.8286Z" fill="white"/>
<path d="M69.6048 35.4093C69.5634 35.4093 69.5497 35.3955 69.5497 35.354V33.6533C69.5497 33.4874 69.5083 33.363 69.4395 33.2662C69.3706 33.1694 69.2466 33.1141 69.095 33.1141C68.9435 33.1141 68.8332 33.1694 68.7506 33.2662C68.6679 33.363 68.6266 33.4874 68.6266 33.6533V35.3402C68.6266 35.3816 68.6128 35.3955 68.5715 35.3955H67.8412C67.7999 35.3955 67.7861 35.3816 67.7861 35.3402V32.5196C67.7861 32.4781 67.7999 32.4643 67.8412 32.4643H68.5715C68.6128 32.4643 68.6266 32.4781 68.6266 32.5196V32.727C68.6955 32.6302 68.7919 32.5611 68.9159 32.4919C69.0399 32.4228 69.1915 32.3951 69.3843 32.3951C69.5497 32.3951 69.6874 32.4228 69.8114 32.4781C69.9354 32.5334 70.0457 32.6025 70.1283 32.6993C70.211 32.7961 70.2799 32.9067 70.3212 33.045C70.3626 33.1832 70.3901 33.3215 70.3901 33.4874V35.3402C70.3901 35.3816 70.3763 35.3955 70.335 35.3955H69.6048V35.4093Z" fill="white"/>
<path d="M73.2007 35.4093C73.1594 35.4093 73.1456 35.3955 73.1456 35.354V35.1466C73.0767 35.2434 72.9803 35.3263 72.8563 35.3955C72.7323 35.4646 72.567 35.4922 72.3741 35.4922C72.1261 35.4922 71.9194 35.4369 71.7541 35.3125C71.5887 35.1881 71.4647 35.0221 71.3821 34.7871C71.3407 34.6627 71.3132 34.552 71.2994 34.4276C71.2856 34.3032 71.2719 34.1511 71.2719 33.9575C71.2719 33.7639 71.2856 33.598 71.2994 33.4874C71.3132 33.3768 71.3407 33.2524 71.3821 33.1279C71.4647 32.8929 71.5887 32.7131 71.7541 32.6025C71.9194 32.4781 72.1261 32.4228 72.3741 32.4228C72.567 32.4228 72.7323 32.4504 72.8563 32.5196C72.9803 32.5887 73.0767 32.6578 73.1456 32.7685V31.3582C73.1456 31.3167 73.1594 31.3029 73.2007 31.3029H73.9309C73.9723 31.3029 73.9861 31.3167 73.9861 31.3582V35.3678C73.9861 35.4093 73.9723 35.4231 73.9309 35.4231H73.2007V35.4093ZM72.6358 34.7594C72.8701 34.7594 73.0216 34.6488 73.0905 34.4414C73.1043 34.3861 73.1181 34.317 73.1318 34.2479C73.1456 34.1787 73.1456 34.0681 73.1456 33.9437C73.1456 33.8193 73.1456 33.7086 73.1318 33.6395C73.1181 33.5704 73.1043 33.5012 73.0905 33.4459C73.0216 33.2385 72.8701 33.1279 72.6358 33.1279C72.4016 33.1279 72.2501 33.2385 72.1812 33.4459C72.1674 33.5012 72.1536 33.5704 72.1398 33.6395C72.1261 33.7086 72.1261 33.8193 72.1261 33.9437C72.1261 34.0681 72.1261 34.1787 72.1398 34.2479C72.1536 34.317 72.1674 34.3861 72.1812 34.4414C72.2501 34.6488 72.4016 34.7594 72.6358 34.7594Z" fill="white"/>
<path d="M76.7691 31.3305C76.7691 31.2891 76.7829 31.2752 76.8242 31.2752H77.5958C77.6371 31.2752 77.6509 31.2891 77.6509 31.3305V34.5797C77.6509 34.6074 77.6647 34.6212 77.6922 34.6212H79.5109C79.5522 34.6212 79.566 34.635 79.566 34.6765V35.354C79.566 35.3955 79.5522 35.4093 79.5109 35.4093H76.8242C76.7829 35.4093 76.7691 35.3955 76.7691 35.354V31.3305Z" fill="white"/>
<path d="M81.6051 35.4784C81.2882 35.4784 81.0264 35.4093 80.7922 35.2711C80.558 35.1328 80.4064 34.9254 80.3237 34.6627C80.2962 34.5521 80.2686 34.4553 80.2549 34.3309C80.2411 34.2064 80.2273 34.0958 80.2273 33.9437C80.2273 33.7916 80.2411 33.6672 80.2549 33.5566C80.2686 33.446 80.2962 33.3354 80.3237 33.2248C80.4064 32.962 80.558 32.7547 80.7922 32.6164C81.0126 32.4781 81.2882 32.409 81.6051 32.409C81.9219 32.409 82.1837 32.4781 82.4179 32.6164C82.6384 32.7547 82.8037 32.962 82.8864 33.2248C82.9139 33.3354 82.9415 33.4321 82.9553 33.5566C82.969 33.6672 82.9828 33.7916 82.9828 33.9437C82.9828 34.0958 82.969 34.2202 82.9553 34.3309C82.9415 34.4415 82.9139 34.5521 82.8864 34.6627C82.8037 34.9254 82.6522 35.1328 82.4179 35.2711C82.1837 35.4093 81.9082 35.4784 81.6051 35.4784ZM81.6051 34.7595C81.8393 34.7595 81.9908 34.6489 82.0597 34.4415C82.0735 34.3723 82.0873 34.3032 82.1011 34.2341C82.1148 34.1649 82.1148 34.0682 82.1148 33.9437C82.1148 33.8193 82.1148 33.7225 82.1011 33.6534C82.0873 33.5842 82.0735 33.5151 82.0597 33.446C81.9908 33.2386 81.8393 33.128 81.6051 33.128C81.3708 33.128 81.2193 33.2386 81.1504 33.446C81.1366 33.5151 81.1228 33.5842 81.1091 33.6534C81.0953 33.7225 81.0953 33.8193 81.0953 33.9437C81.0953 34.0682 81.0953 34.1649 81.1091 34.2341C81.1228 34.3032 81.1366 34.3723 81.1504 34.4415C81.2055 34.6489 81.3571 34.7595 81.6051 34.7595Z" fill="white"/>
<path d="M84.9393 36.5707C84.829 36.5707 84.7188 36.5569 84.6086 36.543C84.4984 36.5154 84.4019 36.4877 84.2917 36.4463C84.1953 36.4048 84.0988 36.3633 84.0162 36.308C83.9335 36.2527 83.8646 36.1974 83.8095 36.1283C83.7819 36.1006 83.7819 36.0591 83.8095 36.0315L84.2366 35.589C84.2641 35.5614 84.2917 35.5614 84.333 35.589C84.4295 35.672 84.5259 35.7273 84.6224 35.7826C84.7188 35.8241 84.829 35.8517 84.9393 35.8517C85.1459 35.8517 85.2975 35.7964 85.3939 35.6858C85.4904 35.5752 85.5317 35.4093 85.5317 35.2019V34.953C85.4628 35.0636 85.3664 35.1466 85.2424 35.2019C85.1184 35.2572 84.9668 35.2987 84.7739 35.2987C84.5259 35.2987 84.333 35.2434 84.1539 35.1189C83.9886 34.9945 83.8646 34.8286 83.7819 34.5797C83.7544 34.4691 83.7268 34.3585 83.713 34.2479C83.6993 34.1373 83.6855 33.999 83.6855 33.8469C83.6855 33.6948 83.6993 33.5566 83.713 33.4459C83.7268 33.3353 83.7544 33.2247 83.7819 33.1141C83.8646 32.8791 83.9748 32.6993 84.1539 32.5749C84.3193 32.4504 84.5259 32.3951 84.7739 32.3951C84.953 32.3951 85.1184 32.4228 85.2424 32.4919C85.3664 32.5472 85.4628 32.6302 85.5317 32.7408V32.5334C85.5317 32.4919 85.5455 32.4781 85.5868 32.4781H86.317C86.3584 32.4781 86.3721 32.4919 86.3721 32.5334V35.1051C86.3997 36.073 85.9175 36.5707 84.9393 36.5707ZM85.0633 34.5797C85.1735 34.5797 85.2699 34.5521 85.3388 34.4967C85.4077 34.4414 85.4628 34.3585 85.4904 34.2617C85.5041 34.2064 85.5179 34.1511 85.5317 34.082C85.5455 34.0128 85.5455 33.9437 85.5455 33.8469C85.5455 33.7501 85.5455 33.681 85.5317 33.6119C85.5179 33.5427 85.5041 33.4874 85.4904 33.4321C85.4628 33.3215 85.4077 33.2524 85.3388 33.1971C85.2699 33.1418 85.1735 33.1141 85.0633 33.1141C84.9393 33.1141 84.8566 33.1418 84.7877 33.1971C84.7188 33.2524 84.6637 33.3353 84.6361 33.4321C84.6224 33.4874 84.6086 33.5427 84.5948 33.6119C84.581 33.681 84.581 33.7501 84.581 33.8469C84.581 33.9437 84.581 34.0128 84.5948 34.082C84.6086 34.1511 84.6086 34.2064 84.6361 34.2617C84.6775 34.3723 84.7188 34.4414 84.7877 34.4967C84.8428 34.5521 84.9393 34.5797 85.0633 34.5797Z" fill="white"/>
<path d="M87.5019 31.9942C87.4606 31.9942 87.4468 31.9804 87.4468 31.9389V31.3305C87.4468 31.2891 87.4606 31.2752 87.5019 31.2752H88.2321C88.2734 31.2752 88.2872 31.2891 88.2872 31.3305V31.9389C88.2872 31.9804 88.2734 31.9942 88.2321 31.9942H87.5019ZM87.5019 35.4093C87.4606 35.4093 87.4468 35.3955 87.4468 35.354V32.5334C87.4468 32.492 87.4606 32.4781 87.5019 32.4781H88.2321C88.2734 32.4781 88.2872 32.492 88.2872 32.5334V35.354C88.2872 35.3955 88.2734 35.4093 88.2321 35.4093H87.5019Z" fill="white"/>
<path d="M90.4916 35.4784C90.1885 35.4784 89.9268 35.4369 89.7063 35.3402C89.4859 35.2434 89.3068 35.1466 89.169 35.0221C89.1414 34.9945 89.1414 34.9668 89.169 34.9392L89.5685 34.4967C89.5961 34.4691 89.6236 34.4691 89.6512 34.4967C89.7752 34.5935 89.9268 34.6765 90.0783 34.7318C90.2299 34.7871 90.3952 34.8148 90.5467 34.8148C90.6983 34.8148 90.8085 34.7871 90.8912 34.7318C90.9601 34.6765 91.0014 34.6074 91.0014 34.5244C91.0014 34.4553 90.9739 34.4 90.9187 34.3585C90.8636 34.317 90.7534 34.2894 90.5881 34.2755L90.2574 34.234C89.9405 34.2064 89.7063 34.1096 89.541 33.9575C89.3756 33.8054 89.293 33.598 89.293 33.3353C89.293 33.045 89.4032 32.8099 89.6099 32.644C89.8165 32.4781 90.1196 32.3951 90.5054 32.3951C90.7534 32.3951 90.9876 32.4228 91.1805 32.4919C91.3872 32.5611 91.5525 32.644 91.6903 32.7546C91.7179 32.7823 91.7179 32.8099 91.6903 32.8514L91.3459 33.2662C91.3183 33.2939 91.2907 33.2939 91.2632 33.28C91.1667 33.2109 91.0427 33.1556 90.905 33.1141C90.7672 33.0726 90.6156 33.045 90.4641 33.045C90.3401 33.045 90.2436 33.0726 90.1885 33.1141C90.1334 33.1556 90.0921 33.2109 90.0921 33.2939C90.0921 33.363 90.1196 33.4183 90.1748 33.4598C90.2299 33.5013 90.3401 33.5289 90.5054 33.5427L90.8223 33.5842C91.1667 33.6119 91.4147 33.7086 91.5663 33.8746C91.7179 34.0267 91.7867 34.234 91.7867 34.4829C91.7867 34.7871 91.6627 35.036 91.4423 35.2157C91.2219 35.3955 90.9188 35.4784 90.4916 35.4784Z" fill="white"/>
<path d="M93.688 35.4369C93.3436 35.4369 93.1094 35.354 92.9716 35.2019C92.8338 35.0498 92.7649 34.8009 92.7649 34.4553V33.1141C92.7649 33.0865 92.7512 33.0726 92.7236 33.0726H92.5445C92.5032 33.0726 92.4894 33.0588 92.4894 33.0173V32.5057C92.4894 32.4643 92.5032 32.4504 92.5445 32.4504H92.7236C92.7512 32.4504 92.7649 32.4366 92.7649 32.409V31.6209C92.7649 31.5794 92.7787 31.5656 92.82 31.5656H93.5365C93.5778 31.5656 93.5916 31.5794 93.5916 31.6209V32.409C93.5916 32.4366 93.6054 32.4504 93.6329 32.4504H94.0049C94.0463 32.4504 94.06 32.4643 94.06 32.5057V33.0173C94.06 33.0588 94.0463 33.0726 94.0049 33.0726H93.6329C93.6054 33.0726 93.5916 33.0865 93.5916 33.1141V34.4138C93.5916 34.5244 93.6054 34.5935 93.6467 34.6488C93.688 34.6903 93.7569 34.718 93.8534 34.718H94.0049C94.0463 34.718 94.06 34.7318 94.06 34.7733V35.3816C94.06 35.4231 94.0463 35.4369 94.0049 35.4369H93.688Z" fill="white"/>
<path d="M95.0383 31.9942C94.9969 31.9942 94.9832 31.9804 94.9832 31.9389V31.3305C94.9832 31.2891 94.9969 31.2752 95.0383 31.2752H95.7685C95.8098 31.2752 95.8236 31.2891 95.8236 31.3305V31.9389C95.8236 31.9804 95.8098 31.9942 95.7685 31.9942H95.0383ZM95.0383 35.4093C94.9969 35.4093 94.9832 35.3955 94.9832 35.354V32.5334C94.9832 32.492 94.9969 32.4781 95.0383 32.4781H95.7685C95.8098 32.4781 95.8236 32.492 95.8236 32.5334V35.354C95.8236 35.3955 95.8098 35.4093 95.7685 35.4093H95.0383Z" fill="white"/>
<path d="M98.097 35.4784C97.7801 35.4784 97.5183 35.4093 97.2979 35.2711C97.0774 35.1328 96.9259 34.9254 96.8294 34.6489C96.8019 34.5659 96.7743 34.4553 96.7605 34.3447C96.7468 34.2341 96.733 34.0958 96.733 33.9437C96.733 33.7916 96.7468 33.6534 96.7605 33.5428C96.7743 33.4321 96.8019 33.3215 96.8294 33.2386C96.9121 32.9621 97.0774 32.7547 97.2979 32.6164C97.5183 32.4781 97.7801 32.409 98.097 32.409C98.345 32.409 98.5792 32.4643 98.7583 32.5611C98.9512 32.6579 99.089 32.7961 99.1992 32.9621C99.213 32.9897 99.2129 33.0174 99.1854 33.045L98.6618 33.3768C98.6205 33.4045 98.593 33.3907 98.5654 33.363C98.4965 33.2801 98.4276 33.2109 98.3587 33.1694C98.2898 33.128 98.1934 33.1141 98.097 33.1141C97.9867 33.1141 97.8903 33.1418 97.8076 33.1971C97.725 33.2524 97.6698 33.3354 97.6423 33.4321C97.6285 33.4875 97.6147 33.5566 97.601 33.6395C97.5872 33.7225 97.5872 33.8193 97.5872 33.9437C97.5872 34.0682 97.5872 34.1649 97.601 34.2479C97.6147 34.3309 97.6285 34.4 97.6423 34.4553C97.6698 34.5659 97.725 34.635 97.8076 34.6903C97.8903 34.7456 97.9867 34.7733 98.097 34.7733C98.2072 34.7733 98.2898 34.7595 98.3587 34.718C98.4276 34.6765 98.4965 34.6074 98.5654 34.5244C98.593 34.4968 98.6205 34.483 98.6618 34.5106L99.1854 34.8563C99.2129 34.8839 99.213 34.9116 99.1992 34.9392C99.089 35.1051 98.9512 35.2296 98.7583 35.3402C98.5654 35.4231 98.345 35.4784 98.097 35.4784Z" fill="white"/>
<path d="M103.195 35.4784C103.029 35.4784 102.878 35.4646 102.712 35.4369C102.561 35.4093 102.409 35.3678 102.272 35.3125C102.134 35.2572 102.01 35.2019 101.886 35.1328C101.776 35.0636 101.679 34.9945 101.596 34.9115C101.569 34.8839 101.569 34.8424 101.596 34.8148L102.051 34.2894C102.079 34.2617 102.106 34.2617 102.148 34.2894C102.285 34.4 102.451 34.4968 102.63 34.5797C102.809 34.6627 103.016 34.7042 103.236 34.7042C103.456 34.7042 103.622 34.6627 103.732 34.5659C103.842 34.4691 103.911 34.3585 103.911 34.2064C103.911 34.082 103.87 33.9852 103.773 33.9022C103.691 33.8193 103.512 33.764 103.264 33.7363L103.043 33.7087C102.616 33.6533 102.299 33.5289 102.079 33.3215C101.858 33.1141 101.748 32.8376 101.748 32.4643C101.748 32.2707 101.776 32.1048 101.844 31.9389C101.913 31.7868 102.01 31.6485 102.134 31.5379C102.258 31.4273 102.409 31.3443 102.588 31.289C102.768 31.2337 102.974 31.1923 103.195 31.1923C103.47 31.1923 103.732 31.2337 103.966 31.3029C104.214 31.3858 104.421 31.4826 104.586 31.6209C104.628 31.6485 104.628 31.6762 104.6 31.7177L104.228 32.2707C104.2 32.2984 104.173 32.3122 104.145 32.2845C103.994 32.1739 103.828 32.1048 103.677 32.0495C103.525 31.9942 103.36 31.9665 103.195 31.9665C103.016 31.9665 102.878 32.008 102.781 32.091C102.685 32.1739 102.644 32.2845 102.644 32.409C102.644 32.5334 102.685 32.6302 102.781 32.6993C102.878 32.7823 103.043 32.8376 103.277 32.8652L103.498 32.8929C103.925 32.9482 104.256 33.0726 104.462 33.28C104.669 33.4874 104.793 33.764 104.793 34.1511C104.793 34.3308 104.765 34.5106 104.696 34.6765C104.628 34.8424 104.531 34.9807 104.393 35.0913C104.256 35.2019 104.09 35.2987 103.884 35.3678C103.677 35.4369 103.47 35.4784 103.195 35.4784Z" fill="white"/>
<path d="M106.942 35.4784C106.612 35.4784 106.322 35.4093 106.102 35.2572C105.881 35.1051 105.73 34.8977 105.647 34.635C105.62 34.5382 105.592 34.4414 105.578 34.3308C105.564 34.2202 105.551 34.0958 105.551 33.9299C105.551 33.7778 105.564 33.6395 105.578 33.5289C105.592 33.4183 105.62 33.3215 105.647 33.2247C105.73 32.962 105.881 32.7546 106.102 32.6025C106.322 32.4643 106.584 32.3813 106.901 32.3813C107.232 32.3813 107.493 32.4504 107.714 32.6025C107.934 32.7546 108.086 32.9482 108.168 33.2109C108.182 33.2662 108.196 33.3077 108.21 33.363C108.224 33.4183 108.237 33.4736 108.237 33.5427C108.251 33.6119 108.251 33.6948 108.251 33.7778C108.251 33.8607 108.251 33.9713 108.251 34.1096C108.251 34.1511 108.224 34.1649 108.182 34.1649H106.405C106.377 34.1649 106.364 34.1787 106.364 34.2064C106.364 34.2617 106.377 34.317 106.405 34.3723C106.446 34.4968 106.515 34.5935 106.625 34.6627C106.736 34.7318 106.86 34.7595 107.011 34.7595C107.163 34.7595 107.287 34.7318 107.397 34.6903C107.507 34.6488 107.604 34.5797 107.686 34.4968C107.728 34.4691 107.755 34.4691 107.769 34.4968L108.168 34.8701C108.196 34.8977 108.196 34.9254 108.168 34.953C108.031 35.1051 107.852 35.2295 107.645 35.3125C107.452 35.4231 107.218 35.4784 106.942 35.4784ZM107.397 33.6257C107.424 33.6257 107.438 33.6119 107.438 33.5842C107.438 33.5427 107.438 33.5013 107.424 33.4598C107.411 33.4183 107.411 33.3906 107.397 33.363C107.369 33.2662 107.3 33.1832 107.218 33.1279C107.135 33.0726 107.025 33.045 106.901 33.045C106.777 33.045 106.68 33.0726 106.584 33.1279C106.501 33.1832 106.432 33.2662 106.405 33.363C106.391 33.3906 106.391 33.4321 106.377 33.4598C106.377 33.4874 106.364 33.5289 106.364 33.5842C106.364 33.6119 106.377 33.6257 106.405 33.6257H107.397Z" fill="white"/>
<path d="M109.229 35.4093C109.188 35.4093 109.174 35.3955 109.174 35.354V32.5334C109.174 32.492 109.188 32.4781 109.229 32.4781H109.959C110.001 32.4781 110.015 32.492 110.015 32.5334V32.7823C110.083 32.6579 110.18 32.5749 110.318 32.5058C110.442 32.4367 110.607 32.409 110.786 32.409C110.883 32.409 110.979 32.4228 111.062 32.4505C111.158 32.4781 111.227 32.5196 111.296 32.5749C111.323 32.6026 111.323 32.6302 111.31 32.6579L110.965 33.2801C110.951 33.3077 110.91 33.3077 110.883 33.2939C110.731 33.1971 110.593 33.1556 110.455 33.1556C110.304 33.1694 110.18 33.2248 110.111 33.3354C110.042 33.446 110.001 33.5981 110.001 33.7916V35.3402C110.001 35.3817 109.987 35.3955 109.946 35.3955H109.229V35.4093Z" fill="white"/>
<path d="M112.867 35.4093C112.825 35.4093 112.812 35.3954 112.798 35.354L111.751 32.5334C111.737 32.4919 111.751 32.4781 111.806 32.4781H112.564C112.605 32.4781 112.632 32.4919 112.646 32.5334L113.211 34.2755H113.225L113.776 32.5334C113.79 32.4919 113.817 32.4781 113.859 32.4781H114.616C114.658 32.4781 114.672 32.4919 114.672 32.5334L113.624 35.354C113.611 35.3954 113.583 35.4093 113.556 35.4093H112.867Z" fill="white"/>
<path d="M115.457 31.9942C115.416 31.9942 115.402 31.9804 115.402 31.9389V31.3305C115.402 31.2891 115.416 31.2752 115.457 31.2752H116.187C116.228 31.2752 116.242 31.2891 116.242 31.3305V31.9389C116.242 31.9804 116.228 31.9942 116.187 31.9942H115.457ZM115.457 35.4093C115.416 35.4093 115.402 35.3955 115.402 35.354V32.5334C115.402 32.492 115.416 32.4781 115.457 32.4781H116.187C116.228 32.4781 116.242 32.492 116.242 32.5334V35.354C116.242 35.3955 116.228 35.4093 116.187 35.4093H115.457Z" fill="white"/>
<path d="M118.515 35.4784C118.199 35.4784 117.937 35.4093 117.716 35.2711C117.496 35.1328 117.344 34.9254 117.248 34.6489C117.22 34.5659 117.193 34.4553 117.179 34.3447C117.165 34.2341 117.151 34.0958 117.151 33.9437C117.151 33.7916 117.165 33.6534 117.179 33.5428C117.193 33.4321 117.22 33.3215 117.248 33.2386C117.331 32.9621 117.496 32.7547 117.716 32.6164C117.937 32.4781 118.199 32.409 118.515 32.409C118.763 32.409 118.998 32.4643 119.177 32.5611C119.37 32.6579 119.507 32.7961 119.618 32.9621C119.631 32.9897 119.631 33.0174 119.604 33.045L119.08 33.3907C119.039 33.4183 119.011 33.4045 118.984 33.3768C118.915 33.2939 118.846 33.2248 118.777 33.1833C118.708 33.1418 118.612 33.128 118.515 33.128C118.405 33.128 118.309 33.1556 118.226 33.2109C118.143 33.2662 118.088 33.3492 118.061 33.446C118.047 33.5013 118.033 33.5704 118.019 33.6534C118.006 33.7363 118.006 33.8331 118.006 33.9575C118.006 34.082 118.006 34.1788 118.019 34.2617C118.033 34.3447 118.047 34.4138 118.061 34.4691C118.088 34.5797 118.143 34.6489 118.226 34.7042C118.309 34.7595 118.405 34.7871 118.515 34.7871C118.626 34.7871 118.708 34.7733 118.777 34.7318C118.846 34.6903 118.915 34.6212 118.984 34.5383C119.011 34.5106 119.039 34.4968 119.08 34.5244L119.604 34.8701C119.631 34.8977 119.631 34.9254 119.618 34.953C119.507 35.119 119.37 35.2434 119.177 35.354C118.984 35.4231 118.763 35.4784 118.515 35.4784Z" fill="white"/>
<path d="M121.753 35.4784C121.423 35.4784 121.133 35.4093 120.913 35.2572C120.692 35.1051 120.541 34.8977 120.458 34.635C120.431 34.5382 120.403 34.4414 120.389 34.3308C120.375 34.2202 120.362 34.0958 120.362 33.9299C120.362 33.7778 120.375 33.6395 120.389 33.5289C120.403 33.4183 120.431 33.3215 120.458 33.2247C120.541 32.962 120.692 32.7546 120.913 32.6025C121.133 32.4643 121.395 32.3813 121.712 32.3813C122.043 32.3813 122.304 32.4504 122.525 32.6025C122.745 32.7546 122.897 32.9482 122.979 33.2109C122.993 33.2662 123.007 33.3077 123.021 33.363C123.035 33.4183 123.048 33.4736 123.048 33.5427C123.062 33.6119 123.062 33.6948 123.062 33.7778C123.062 33.8607 123.062 33.9713 123.062 34.1096C123.062 34.1511 123.035 34.1649 122.993 34.1649H121.216C121.188 34.1649 121.175 34.1787 121.175 34.2064C121.175 34.2617 121.188 34.317 121.216 34.3723C121.257 34.4968 121.326 34.5935 121.436 34.6627C121.547 34.7318 121.671 34.7595 121.822 34.7595C121.974 34.7595 122.098 34.7318 122.208 34.6903C122.318 34.6488 122.415 34.5797 122.497 34.4968C122.539 34.4691 122.566 34.4691 122.58 34.4968L122.979 34.8701C123.007 34.8977 123.007 34.9254 122.979 34.953C122.842 35.1051 122.663 35.2295 122.456 35.3125C122.263 35.4231 122.029 35.4784 121.753 35.4784ZM122.208 33.6257C122.235 33.6257 122.249 33.6119 122.249 33.5842C122.249 33.5427 122.249 33.5013 122.235 33.4598C122.222 33.4183 122.222 33.3906 122.208 33.363C122.18 33.2662 122.111 33.1832 122.029 33.1279C121.946 33.0726 121.836 33.045 121.712 33.045C121.588 33.045 121.491 33.0726 121.395 33.1279C121.312 33.1832 121.243 33.2662 121.216 33.363C121.202 33.3906 121.202 33.4321 121.188 33.4598C121.188 33.4874 121.175 33.5289 121.175 33.5842C121.175 33.6119 121.188 33.6257 121.216 33.6257H122.208Z" fill="white"/>
<path d="M125.129 35.4784C124.826 35.4784 124.564 35.4369 124.343 35.3402C124.123 35.2434 123.944 35.1466 123.806 35.0221C123.778 34.9945 123.778 34.9668 123.806 34.9392L124.206 34.4967C124.233 34.4691 124.261 34.4691 124.288 34.4967C124.412 34.5935 124.564 34.6765 124.715 34.7318C124.867 34.7871 125.032 34.8148 125.184 34.8148C125.335 34.8148 125.446 34.7871 125.528 34.7318C125.597 34.6765 125.638 34.6074 125.638 34.5244C125.638 34.4553 125.611 34.4 125.556 34.3585C125.501 34.317 125.39 34.2894 125.225 34.2755L124.894 34.234C124.578 34.2064 124.343 34.1096 124.178 33.9575C124.013 33.8054 123.93 33.598 123.93 33.3353C123.93 33.045 124.04 32.8099 124.247 32.644C124.454 32.4781 124.757 32.3951 125.142 32.3951C125.39 32.3951 125.625 32.4228 125.818 32.4919C126.024 32.5611 126.19 32.644 126.327 32.7546C126.355 32.7823 126.355 32.8099 126.327 32.8514L125.983 33.2662C125.955 33.2939 125.928 33.2939 125.9 33.28C125.804 33.2109 125.68 33.1556 125.542 33.1141C125.404 33.0726 125.253 33.045 125.101 33.045C124.977 33.045 124.881 33.0726 124.826 33.1141C124.77 33.1556 124.729 33.2109 124.729 33.2939C124.729 33.363 124.757 33.4183 124.812 33.4598C124.867 33.5013 124.977 33.5289 125.142 33.5427L125.459 33.5842C125.804 33.6119 126.052 33.7086 126.203 33.8746C126.355 34.0267 126.424 34.234 126.424 34.4829C126.424 34.7871 126.3 35.036 126.079 35.2157C125.859 35.3955 125.556 35.4784 125.129 35.4784Z" fill="white"/>
<path d="M144.293 20.7672H142.351V25.8553H144.293V20.7672Z" fill="white"/>
<path d="M144.293 14.4623H142.351V20.062H144.293V14.4623Z" fill="white"/>
<path d="M144.114 9.99645L143.977 9.73375C143.88 9.58166 143.797 9.42957 143.715 9.27748C143.618 9.08391 143.494 8.90417 143.37 8.72443C143.246 8.90417 143.136 9.08391 143.026 9.27748C142.943 9.42957 142.847 9.58166 142.764 9.71992L142.516 10.1762L142.351 10.4804V13.8402H144.293V10.3283L144.211 10.19L144.114 9.99645Z" fill="white"/>
<path d="M147.958 28.1505V30.3765C147.958 32.6026 146.388 34.4691 144.307 34.9116V31.2199H142.365V34.9116C140.27 34.4691 138.713 32.6026 138.713 30.3765V28.1505L136.95 31.3444L136.964 31.4135C137.432 34.2756 139.678 36.4325 142.475 36.8058L143.37 37.4141L144.28 36.7919C147.049 36.4048 149.281 34.2617 149.736 31.4135L149.749 31.3444L147.958 28.1505Z" fill="white"/>
<path d="M143.618 5.39227L143.384 5.12957L143.302 5.04662L143.219 4.96366C143.095 4.8254 142.971 4.70096 142.847 4.56269C142.585 4.29999 142.323 4.05112 142.062 3.80225C141.786 3.5672 141.524 3.33215 141.262 3.11093C140.987 2.90353 140.725 2.69614 140.463 2.50257C140.202 2.309 139.94 2.14308 139.678 1.97717C139.416 1.81125 139.182 1.64534 138.92 1.5209C138.672 1.38263 138.438 1.2582 138.218 1.13376C137.997 1.00932 137.763 0.912539 137.57 0.815755C137.157 0.622186 136.798 0.456269 136.482 0.345659C135.862 0.124437 135.517 0 135.517 0C135.517 0 135.793 0.262701 136.289 0.677491C136.537 0.884886 136.826 1.14759 137.17 1.43794C137.515 1.71447 137.873 2.06013 138.273 2.43344C138.479 2.61318 138.672 2.80675 138.879 3.01414C139.086 3.22154 139.32 3.41511 139.526 3.63633C139.747 3.85755 139.954 4.07877 140.188 4.29999C140.381 4.52121 140.587 4.72861 140.794 4.94983C141.428 5.04662 142.02 5.17105 142.585 5.32314L142.833 5.39227L142.916 5.4061L142.957 5.41993L143.081 5.44758L143.233 5.48906L143.329 5.51671L143.439 5.48906L143.646 5.43375L143.618 5.39227Z" fill="white"/>
<path d="M143.797 5.23993L143.811 5.25376L143.908 5.3782L144.101 5.32289C144.707 5.15697 145.341 5.03254 146.016 4.93575C146.209 4.72836 146.401 4.52096 146.594 4.31357C146.815 4.09235 147.035 3.87112 147.256 3.6499C147.462 3.42868 147.697 3.23511 147.903 3.02772C148.11 2.82032 148.317 2.62675 148.523 2.46084C148.923 2.10135 149.295 1.75569 149.639 1.47917C149.984 1.18881 150.273 0.926112 150.521 0.732543C151.017 0.317753 151.292 0.0688782 151.292 0.0688782C151.292 0.0688782 150.934 0.179489 150.314 0.400711C149.997 0.511322 149.639 0.663412 149.226 0.856981C149.019 0.953765 148.799 1.05055 148.564 1.17499C148.344 1.29942 148.11 1.42386 147.848 1.56212C147.6 1.68656 147.352 1.85248 147.09 2.01839C146.829 2.18431 146.567 2.35023 146.305 2.54379C146.043 2.73736 145.781 2.93093 145.506 3.15215C145.244 3.37338 144.969 3.5946 144.707 3.82965C144.445 4.06469 144.183 4.32739 143.921 4.57627C143.797 4.7007 143.673 4.83897 143.549 4.97723L143.701 5.15697L143.797 5.23993Z" fill="white"/>
<path d="M147.6 15.1536C147.573 14.5868 147.504 13.9646 147.393 13.3147C147.283 12.6649 147.118 11.9874 146.911 11.2961C146.746 10.7569 146.539 10.2176 146.305 9.6784L145.258 9.16682C145.12 9.11152 144.982 9.04239 144.845 8.98708C144.61 8.8903 144.376 8.77968 144.142 8.69673L143.797 8.55846L143.536 8.44785L143.439 8.40637L143.494 8.50316C143.632 8.72438 143.77 8.93177 143.894 9.153C143.977 9.30509 144.073 9.45718 144.156 9.59544C144.238 9.74753 144.321 9.89962 144.404 10.0517C144.569 10.3559 144.707 10.6601 144.872 10.9642C145.01 11.2684 145.161 11.5726 145.285 11.8768C145.547 12.4851 145.768 13.0797 145.974 13.6466C146.167 14.2273 146.346 14.7803 146.47 15.2919C146.76 16.3289 146.925 17.2276 147.035 17.8498C147.077 18.1678 147.118 18.4166 147.145 18.5964C147.173 18.7761 147.173 18.8591 147.173 18.8591C147.173 18.8591 147.201 18.7761 147.256 18.5964C147.297 18.4305 147.366 18.1816 147.421 17.8498C147.476 17.5179 147.545 17.1308 147.573 16.6607C147.614 16.2459 147.628 15.7205 147.6 15.1536Z" fill="white"/>
<path d="M143.301 8.40637L143.191 8.44785L142.888 8.57229L142.544 8.71055C142.309 8.80734 142.075 8.90412 141.841 9.00091C141.703 9.05621 141.566 9.12534 141.442 9.18065L140.422 9.66457C140.188 10.2038 139.981 10.743 139.802 11.2684C139.582 11.9597 139.416 12.6372 139.292 13.2732C139.182 13.9231 139.099 14.5314 139.072 15.1122C139.044 15.679 139.044 16.2044 139.072 16.6607C139.099 17.117 139.154 17.5179 139.21 17.8498C139.251 18.1816 139.32 18.4305 139.361 18.5964C139.402 18.7623 139.444 18.8591 139.444 18.8591C139.444 18.8591 139.458 18.7623 139.471 18.5964C139.499 18.4305 139.54 18.1678 139.582 17.8498C139.692 17.2138 139.871 16.3289 140.16 15.2919C140.298 14.7803 140.477 14.2273 140.684 13.6466C140.89 13.0659 141.125 12.4713 141.386 11.8768C141.524 11.5726 141.662 11.2684 141.813 10.9642C141.965 10.6601 142.117 10.3559 142.282 10.0517C142.365 9.89962 142.447 9.74753 142.53 9.59544C142.626 9.44335 142.709 9.30509 142.792 9.153C142.916 8.93177 143.053 8.72438 143.191 8.50316L143.301 8.40637Z" fill="white"/>
<path d="M142.805 5.62732L142.681 5.59966L142.544 5.55819C142.048 5.41992 141.552 5.32314 141.042 5.24018L140.863 5.21253L140.684 5.18487C140.449 5.15722 140.229 5.11574 139.995 5.08809C139.278 5.00513 138.562 4.97748 137.887 4.97748H137.584C136.826 5.00513 136.096 5.06044 135.448 5.15722C134.787 5.25401 134.194 5.37844 133.685 5.51671C133.161 5.65497 132.72 5.80706 132.362 5.94532C132.004 6.06976 131.728 6.22185 131.549 6.30481C131.37 6.40159 131.274 6.4569 131.274 6.4569C131.274 6.4569 131.384 6.44307 131.59 6.42924C131.797 6.41542 132.086 6.40159 132.458 6.38777C132.693 6.38777 132.954 6.37394 133.244 6.37394C133.878 6.37394 134.649 6.38777 135.503 6.4569C136.123 6.49838 136.798 6.58134 137.501 6.66429C138.19 6.76108 138.906 6.88551 139.637 7.05143C139.843 6.94082 140.064 6.83021 140.284 6.70577C140.422 6.63664 140.56 6.58133 140.697 6.5122C140.959 6.38777 141.235 6.26333 141.51 6.15272L141.621 6.11124L141.731 6.06976L141.855 6.02828C142.061 5.94532 142.268 5.87619 142.489 5.79323L142.695 5.7241L142.778 5.69645L142.902 5.65497L142.805 5.62732Z" fill="white"/>
<path d="M154.82 14.6006C154.627 14.2688 154.365 13.8955 154.048 13.453C153.897 13.2318 153.731 12.9967 153.538 12.7755C153.345 12.5405 153.139 12.3054 152.932 12.0566C152.725 11.7939 152.491 11.5588 152.243 11.2961C151.995 11.0472 151.747 10.7707 151.458 10.5218C151.182 10.2591 150.893 9.99643 150.59 9.73373C150.287 9.48485 149.956 9.23598 149.625 8.97328C149.295 8.7244 148.937 8.48936 148.592 8.24048C148.234 8.00543 147.862 7.78421 147.476 7.56299C147.325 7.48003 147.173 7.39708 147.021 7.31412C146.663 7.39708 146.291 7.49386 145.961 7.57682C145.823 7.6183 145.685 7.65978 145.547 7.68743L145.533 7.70126L145.437 7.72891L145.327 7.75656C145.161 7.79804 144.996 7.85335 144.831 7.90865L144.266 8.08839C144.059 8.15752 143.88 8.22666 143.715 8.28196C143.894 8.35109 144.073 8.43405 144.252 8.50318C144.624 8.65527 144.996 8.82119 145.368 8.98711C145.644 9.11154 145.905 9.24981 146.181 9.37424L146.346 9.4572L146.47 9.51251L146.512 9.54016C146.856 9.7199 147.187 9.89964 147.517 10.0794C147.862 10.273 148.193 10.4665 148.537 10.6601C148.868 10.8675 149.185 11.0749 149.501 11.2546C149.818 11.462 150.121 11.6694 150.411 11.863C150.714 12.0566 150.989 12.2639 151.265 12.4575C151.541 12.6511 151.816 12.8308 152.064 13.0382C152.574 13.4115 153.042 13.7572 153.442 14.089C153.855 14.407 154.213 14.6836 154.503 14.9324C155.081 15.4025 155.44 15.6652 155.44 15.6652C155.44 15.6652 155.205 15.2504 154.82 14.6006Z" fill="white"/>
<path d="M155.136 6.30481C154.957 6.22185 154.682 6.08359 154.324 5.94532C153.965 5.80706 153.525 5.65497 153.001 5.51671C152.491 5.37844 151.885 5.25401 151.237 5.15722C150.576 5.06044 149.86 5.00513 149.102 4.97748H148.799C148.124 4.97748 147.421 5.00513 146.691 5.08809C146.498 5.11574 146.305 5.12957 146.112 5.15722L145.933 5.18487L145.754 5.21253C145.217 5.29548 144.679 5.40609 144.142 5.54436L144.059 5.57201L143.935 5.59966L143.811 5.62732L143.742 5.64114L143.536 5.69645L143.508 5.71027L143.343 5.76558C143.191 5.82089 143.026 5.86236 142.874 5.91767L142.654 5.9868L142.447 6.05593L142.241 6.13889L141.91 6.26333L141.8 6.30481L141.689 6.34629L141.621 6.37394C141.207 6.53986 140.808 6.73342 140.394 6.92699C140.257 6.99612 140.133 7.06526 139.995 7.13439L139.843 7.21735L139.692 7.3003C139.54 7.38326 139.389 7.46622 139.237 7.54918C138.851 7.7704 138.479 7.99162 138.121 8.22667C137.763 8.47555 137.418 8.71059 137.088 8.95947C136.757 9.22217 136.44 9.47104 136.123 9.71991C135.82 9.98262 135.531 10.2453 135.255 10.508C134.98 10.7569 134.718 11.0334 134.47 11.2961C134.222 11.5588 133.988 11.7939 133.781 12.0566C133.574 12.3054 133.368 12.5543 133.175 12.7894C132.982 13.0244 132.83 13.2595 132.665 13.4669C132.348 13.8955 132.086 14.2826 131.894 14.6144C131.494 15.2643 131.287 15.6514 131.287 15.6514C131.287 15.6514 131.646 15.3887 132.224 14.9186C132.514 14.6697 132.872 14.407 133.285 14.0752C133.685 13.7434 134.153 13.4116 134.663 13.0244C134.911 12.8308 135.186 12.6373 135.462 12.4437C135.738 12.2501 136.013 12.0289 136.316 11.8492C136.619 11.6556 136.922 11.4482 137.226 11.2408C137.542 11.0472 137.873 10.8399 138.19 10.6463C138.521 10.4527 138.865 10.2591 139.21 10.0656C139.554 9.88583 139.912 9.69226 140.257 9.51252L140.422 9.42956L140.587 9.3466C140.835 9.22217 141.097 9.09773 141.345 8.97329C141.717 8.8212 142.089 8.64146 142.461 8.48937C142.64 8.42024 142.819 8.35111 143.012 8.26815L143.067 8.25432L143.177 8.21284L143.288 8.17136L143.357 8.14371L143.536 8.08841L143.605 8.06075L143.715 8.01927L143.908 7.95014L144.183 7.85336C144.376 7.79805 144.569 7.72892 144.762 7.67362C144.9 7.63214 145.051 7.59066 145.203 7.54918L145.313 7.52153L145.437 7.49387C145.589 7.45239 145.754 7.41092 145.905 7.35561C146.181 7.28648 146.457 7.21735 146.732 7.16204L146.897 7.12056L147.035 7.09291L147.063 7.07908C147.793 6.91317 148.523 6.78873 149.212 6.69195C149.915 6.59516 150.576 6.52603 151.196 6.48455C152.05 6.41542 152.822 6.40159 153.456 6.40159C153.745 6.40159 154.007 6.40159 154.241 6.41542C154.613 6.42924 154.916 6.44307 155.109 6.4569C155.316 6.47072 155.426 6.48455 155.426 6.48455C155.426 6.48455 155.329 6.38777 155.136 6.30481Z" fill="white"/>
<path d="M144.996 23.2835V26.6157H141.662V23.2835L126.686 14.0752C126.686 14.3102 126.796 14.5315 126.989 14.6697L139.733 24.0993V30.1414C139.733 31.4687 140.449 32.7131 141.621 33.3076L141.648 33.3215L141.676 33.3353V30.4871H145.01V33.3353L145.037 33.3215L145.065 33.3076C146.25 32.7131 146.953 31.4687 146.953 30.1414V24.0993L159.697 14.6697C159.89 14.5315 160 14.3102 160 14.0752L144.996 23.2835ZM141.662 27.708H144.996V29.3948H141.662V27.708Z" fill="white"/>
</svg>
